<svg width="68" height="17" viewBox="0 0 68 17" fill="none" xmlns="http://www.w3.org/2000/svg">
<path d="M0.694 0.644H8.152C9.428 0.644 10.418 1.00333 11.122 1.722C11.8407 2.44067 12.2 3.394 12.2 4.582C12.2 5.16867 12.1193 5.66733 11.958 6.078C11.8113 6.48867 11.606 6.826 11.342 7.09C11.0927 7.354 10.792 7.552 10.44 7.684C10.1027 7.80133 9.736 7.86733 9.34 7.882V8.014C9.70667 8.014 10.088 8.08 10.484 8.212C10.8947 8.344 11.2687 8.55667 11.606 8.85C11.9433 9.12867 12.222 9.49533 12.442 9.95C12.6767 10.4047 12.794 10.962 12.794 11.622C12.794 12.2233 12.6913 12.7953 12.486 13.338C12.2953 13.866 12.024 14.328 11.672 14.724C11.32 15.12 10.902 15.4353 10.418 15.67C9.934 15.89 9.406 16 8.834 16H0.694V0.644ZM4.038 13.184H7.888C8.328 13.184 8.67267 13.0667 8.922 12.832C9.186 12.5827 9.318 12.238 9.318 11.798V11.05C9.318 10.61 9.186 10.2727 8.922 10.038C8.67267 9.78867 8.328 9.664 7.888 9.664H4.038V13.184ZM4.038 6.936H7.36C7.8 6.936 8.14467 6.81133 8.394 6.562C8.64333 6.31267 8.768 5.968 8.768 5.528V4.868C8.768 4.428 8.64333 4.08333 8.394 3.834C8.14467 3.58467 7.8 3.46 7.36 3.46H4.038V6.936ZM19.7678 16V0.644H23.1118V13.03H28.9638V16H19.7678ZM41.113 16.264C40.101 16.264 39.177 16.0953 38.341 15.758C37.505 15.4207 36.7937 14.922 36.207 14.262C35.6203 13.5873 35.1657 12.7587 34.843 11.776C34.5203 10.7787 34.359 9.62733 34.359 8.322C34.359 7.01667 34.5203 5.87267 34.843 4.89C35.1657 3.89267 35.6203 3.064 36.207 2.404C36.7937 1.72933 37.505 1.22333 38.341 0.885999C39.177 0.548666 40.101 0.379999 41.113 0.379999C42.125 0.379999 43.049 0.548666 43.885 0.885999C44.721 1.22333 45.4323 1.72933 46.019 2.404C46.6057 3.064 47.0603 3.89267 47.383 4.89C47.7057 5.87267 47.867 7.01667 47.867 8.322C47.867 9.62733 47.7057 10.7787 47.383 11.776C47.0603 12.7587 46.6057 13.5873 46.019 14.262C45.4323 14.922 44.721 15.4207 43.885 15.758C43.049 16.0953 42.125 16.264 41.113 16.264ZM41.113 13.294C42.125 13.294 42.9097 12.964 43.467 12.304C44.039 11.644 44.325 10.698 44.325 9.466V7.178C44.325 5.946 44.039 5 43.467 4.34C42.9097 3.68 42.125 3.35 41.113 3.35C40.101 3.35 39.309 3.68 38.737 4.34C38.1797 5 37.901 5.946 37.901 7.178V9.466C37.901 10.698 38.1797 11.644 38.737 12.304C39.309 12.964 40.101 13.294 41.113 13.294ZM64.8041 13.558H64.6941C64.5767 14.3353 64.1807 14.9807 63.5061 15.494C62.8314 16.0073 61.9147 16.264 60.7561 16.264C59.8761 16.264 59.0547 16.0953 58.2921 15.758C57.5294 15.4207 56.8621 14.922 56.2901 14.262C55.7181 13.602 55.2707 12.7807 54.9481 11.798C54.6254 10.8153 54.4641 9.67867 54.4641 8.388C54.4641 7.09733 54.6327 5.95333 54.9701 4.956C55.3074 3.95867 55.7767 3.12267 56.3781 2.448C56.9941 1.77333 57.7274 1.26 58.5781 0.907999C59.4287 0.555999 60.3747 0.379999 61.4161 0.379999C62.7947 0.379999 63.9827 0.680666 64.9801 1.282C65.9774 1.86867 66.7621 2.756 67.3341 3.944L64.6061 5.506C64.3714 4.90467 64.0047 4.39867 63.5061 3.988C63.0074 3.56267 62.3107 3.35 61.4161 3.35C60.3747 3.35 59.5461 3.65067 58.9301 4.252C58.3141 4.85333 58.0061 5.79933 58.0061 7.09V9.554C58.0061 10.83 58.3141 11.776 58.9301 12.392C59.5461 12.9933 60.3747 13.294 61.4161 13.294C61.8267 13.294 62.2154 13.25 62.5821 13.162C62.9487 13.0593 63.2714 12.9127 63.5501 12.722C63.8287 12.5167 64.0414 12.2747 64.1881 11.996C64.3494 11.7173 64.4301 11.3873 64.4301 11.006V10.236H61.5701V7.442H67.6201V16H64.8041V13.558Z" fill="url(#paint0_linear_18_5)"/>
<defs>
<linearGradient id="paint0_linear_18_5" x1="-1" y1="22" x2="70" y2="22" gradientUnits="userSpaceOnUse">
<stop stop-color="#B16CEA"/>
<stop offset="0.394849" stop-color="#FF5E69"/>
<stop offset="0.699303" stop-color="#FF8A56"/>
<stop offset="1" stop-color="#FFA84B"/>
</linearGradient>
</defs>
</svg>
