<svg width="146" height="17" viewBox="0 0 146 17" fill="none" xmlns="http://www.w3.org/2000/svg">
<path d="M0.694 0.644H8.152C9.428 0.644 10.418 1.00333 11.122 1.722C11.8407 2.44067 12.2 3.394 12.2 4.582C12.2 5.16867 12.1193 5.66733 11.958 6.078C11.8113 6.48867 11.606 6.826 11.342 7.09C11.0927 7.354 10.792 7.552 10.44 7.684C10.1027 7.80133 9.736 7.86733 9.34 7.882V8.014C9.70667 8.014 10.088 8.08 10.484 8.212C10.8947 8.344 11.2687 8.55667 11.606 8.85C11.9433 9.12867 12.222 9.49533 12.442 9.95C12.6767 10.4047 12.794 10.962 12.794 11.622C12.794 12.2233 12.6913 12.7953 12.486 13.338C12.2953 13.866 12.024 14.328 11.672 14.724C11.32 15.12 10.902 15.4353 10.418 15.67C9.934 15.89 9.406 16 8.834 16H0.694V0.644ZM4.038 13.184H7.888C8.328 13.184 8.67267 13.0667 8.922 12.832C9.186 12.5827 9.318 12.238 9.318 11.798V11.05C9.318 10.61 9.186 10.2727 8.922 10.038C8.67267 9.78867 8.328 9.664 7.888 9.664H4.038V13.184ZM4.038 6.936H7.36C7.8 6.936 8.14467 6.81133 8.394 6.562C8.64333 6.31267 8.768 5.968 8.768 5.528V4.868C8.768 4.428 8.64333 4.08333 8.394 3.834C8.14467 3.58467 7.8 3.46 7.36 3.46H4.038V6.936ZM23.1118 16H19.7678V0.644H27.0498C27.7538 0.644 28.3918 0.761333 28.9638 0.995999C29.5358 1.23067 30.0198 1.568 30.4158 2.008C30.8265 2.43333 31.1418 2.94667 31.3618 3.548C31.5818 4.14933 31.6918 4.81667 31.6918 5.55C31.6918 6.59133 31.4572 7.50067 30.9878 8.278C30.5332 9.05533 29.8365 9.62 28.8978 9.972L31.9118 16H28.1938L25.5098 10.368H23.1118V16ZM26.6318 7.552C27.1305 7.552 27.5192 7.42733 27.7978 7.178C28.0912 6.914 28.2378 6.53267 28.2378 6.034V5.066C28.2378 4.56733 28.0912 4.19333 27.7978 3.944C27.5192 3.68 27.1305 3.548 26.6318 3.548H23.1118V7.552H26.6318ZM48.452 16L47.352 12.348H42.226L41.126 16H37.738L42.798 0.644H46.934L51.928 16H48.452ZM44.822 3.68H44.712L43.018 9.51H46.538L44.822 3.68ZM63.1386 8.74L61.6646 5.66H61.5986V16H58.4526V0.644H62.1046L66.3066 7.904L67.7806 10.984H67.8466V0.644H70.9926V16H67.3406L63.1386 8.74ZM78.7725 0.644H84.5585C85.5705 0.644 86.4945 0.805333 87.3305 1.128C88.1665 1.45067 88.8778 1.93467 89.4645 2.58C90.0512 3.21067 90.5058 4.01 90.8285 4.978C91.1512 5.93133 91.3125 7.046 91.3125 8.322C91.3125 9.598 91.1512 10.72 90.8285 11.688C90.5058 12.6413 90.0512 13.4407 89.4645 14.086C88.8778 14.7167 88.1665 15.1933 87.3305 15.516C86.4945 15.8387 85.5705 16 84.5585 16H78.7725V0.644ZM84.5585 13.03C85.5558 13.03 86.3405 12.7513 86.9125 12.194C87.4845 11.6367 87.7705 10.742 87.7705 9.51V7.134C87.7705 5.902 87.4845 5.00733 86.9125 4.45C86.3405 3.89267 85.5558 3.614 84.5585 3.614H82.1165V13.03H84.5585ZM97.9184 16V13.338H99.8984V3.306H97.9184V0.644H105.222V3.306H103.242V13.338H105.222V16H97.9184ZM117.094 8.74L115.62 5.66H115.554V16H112.408V0.644H116.06L120.262 7.904L121.736 10.984H121.802V0.644H124.948V16H121.296L117.094 8.74ZM142.474 13.558H142.364C142.247 14.3353 141.851 14.9807 141.176 15.494C140.502 16.0073 139.585 16.264 138.426 16.264C137.546 16.264 136.725 16.0953 135.962 15.758C135.2 15.4207 134.532 14.922 133.96 14.262C133.388 13.602 132.941 12.7807 132.618 11.798C132.296 10.8153 132.134 9.67867 132.134 8.388C132.134 7.09733 132.303 5.95333 132.64 4.956C132.978 3.95867 133.447 3.12267 134.048 2.448C134.664 1.77333 135.398 1.26 136.248 0.907999C137.099 0.555999 138.045 0.379999 139.086 0.379999C140.465 0.379999 141.653 0.680666 142.65 1.282C143.648 1.86867 144.432 2.756 145.004 3.944L142.276 5.506C142.042 4.90467 141.675 4.39867 141.176 3.988C140.678 3.56267 139.981 3.35 139.086 3.35C138.045 3.35 137.216 3.65067 136.6 4.252C135.984 4.85333 135.676 5.79933 135.676 7.09V9.554C135.676 10.83 135.984 11.776 136.6 12.392C137.216 12.9933 138.045 13.294 139.086 13.294C139.497 13.294 139.886 13.25 140.252 13.162C140.619 13.0593 140.942 12.9127 141.22 12.722C141.499 12.5167 141.712 12.2747 141.858 11.996C142.02 11.7173 142.1 11.3873 142.1 11.006V10.236H139.24V7.442H145.29V16H142.474V13.558Z" fill="url(#paint0_linear_17_2)"/>
<defs>
<linearGradient id="paint0_linear_17_2" x1="-1" y1="22" x2="147" y2="22" gradientUnits="userSpaceOnUse">
<stop stop-color="#B16CEA"/>
<stop offset="0.394849" stop-color="#FF5E69"/>
<stop offset="0.699303" stop-color="#FF8A56"/>
<stop offset="1" stop-color="#FFA84B"/>
</linearGradient>
</defs>
</svg>
