<svg width="48" height="21" viewBox="0 0 48 21" fill="none" xmlns="http://www.w3.org/2000/svg">
<path d="M0.694 16V0.644H10.88V3.614H4.038V6.76H9.868V9.708H4.038V16H0.694ZM25.511 16L24.411 12.348H19.285L18.185 16H14.797L19.857 0.644H23.993L28.987 16H25.511ZM21.881 3.68H21.771L20.077 9.51H23.597L21.881 3.68ZM45.0756 20.048H43.0076C41.8196 20.048 40.9542 19.7693 40.4116 19.212C39.8689 18.6547 39.5976 17.848 39.5976 16.792V16.154C37.9549 15.8607 36.6496 15.0613 35.6816 13.756C34.7282 12.436 34.2516 10.6247 34.2516 8.322C34.2516 7.01667 34.4129 5.87267 34.7356 4.89C35.0582 3.89267 35.5129 3.064 36.0996 2.404C36.6862 1.72933 37.3976 1.22333 38.2336 0.885999C39.0696 0.548666 39.9936 0.379999 41.0056 0.379999C42.0176 0.379999 42.9416 0.548666 43.7776 0.885999C44.6136 1.22333 45.3249 1.72933 45.9116 2.404C46.4982 3.064 46.9529 3.89267 47.2756 4.89C47.5982 5.87267 47.7596 7.01667 47.7596 8.322C47.7596 10.5513 47.3049 12.3187 46.3956 13.624C45.5009 14.9293 44.2762 15.7507 42.7216 16.088V17.32H45.0756V20.048ZM41.0056 13.294C42.0176 13.294 42.8022 12.964 43.3596 12.304C43.9316 11.644 44.2176 10.698 44.2176 9.466V7.178C44.2176 5.946 43.9316 5 43.3596 4.34C42.8022 3.68 42.0176 3.35 41.0056 3.35C39.9936 3.35 39.2016 3.68 38.6296 4.34C38.0722 5 37.7936 5.946 37.7936 7.178V9.466C37.7936 10.698 38.0722 11.644 38.6296 12.304C39.2016 12.964 39.9936 13.294 41.0056 13.294Z" fill="url(#paint0_linear_44_331)"/>
<defs>
<linearGradient id="paint0_linear_44_331" x1="-1" y1="22" x2="49" y2="22" gradientUnits="userSpaceOnUse">
<stop stop-color="#B16CEA"/>
<stop offset="0.394849" stop-color="#FF5E69"/>
<stop offset="0.699303" stop-color="#FF8A56"/>
<stop offset="1" stop-color="#FFA84B"/>
</linearGradient>
</defs>
</svg>
