<svg width="431" height="70" viewBox="0 0 431 70" fill="none" xmlns="http://www.w3.org/2000/svg">
<path d="M422.37 55.594C420.75 55.594 419.544 55.198 418.752 54.406C417.996 53.578 417.618 52.534 417.618 51.274V50.194C417.618 48.934 417.996 47.908 418.752 47.116C419.544 46.288 420.75 45.874 422.37 45.874C423.99 45.874 425.178 46.288 425.934 47.116C426.726 47.908 427.122 48.934 427.122 50.194V51.274C427.122 52.534 426.726 53.578 425.934 54.406C425.178 55.198 423.99 55.594 422.37 55.594Z" fill="url(#paint0_linear_87_4)"/>
<path d="M4.158 55V17.308H21.978C23.742 17.308 25.326 17.614 26.73 18.226C28.134 18.802 29.322 19.612 30.294 20.656C31.302 21.7 32.076 22.978 32.616 24.49C33.156 25.966 33.426 27.586 33.426 29.35C33.426 31.15 33.156 32.788 32.616 34.264C32.076 35.74 31.302 37 30.294 38.044C29.322 39.088 28.134 39.916 26.73 40.528C25.326 41.104 23.742 41.392 21.978 41.392H12.366V55H4.158ZM12.366 34.264H21.006C22.23 34.264 23.184 33.958 23.868 33.346C24.588 32.698 24.948 31.762 24.948 30.538V28.162C24.948 26.938 24.588 26.02 23.868 25.408C23.184 24.76 22.23 24.436 21.006 24.436H12.366V34.264ZM49.6108 55.648C47.5228 55.648 45.6508 55.306 43.9948 54.622C42.3748 53.938 40.9888 52.948 39.8368 51.652C38.7208 50.356 37.8568 48.79 37.2448 46.954C36.6328 45.118 36.3268 43.066 36.3268 40.798C36.3268 38.53 36.6328 36.478 37.2448 34.642C37.8568 32.806 38.7208 31.258 39.8368 29.998C40.9888 28.702 42.3748 27.712 43.9948 27.028C45.6508 26.344 47.5228 26.002 49.6108 26.002C51.6988 26.002 53.5528 26.344 55.1728 27.028C56.8288 27.712 58.2148 28.702 59.3308 29.998C60.4828 31.258 61.3648 32.806 61.9768 34.642C62.5888 36.478 62.8948 38.53 62.8948 40.798C62.8948 43.066 62.5888 45.118 61.9768 46.954C61.3648 48.79 60.4828 50.356 59.3308 51.652C58.2148 52.948 56.8288 53.938 55.1728 54.622C53.5528 55.306 51.6988 55.648 49.6108 55.648ZM49.6108 49.33C51.1948 49.33 52.4188 48.844 53.2828 47.872C54.1468 46.9 54.5788 45.514 54.5788 43.714V37.936C54.5788 36.136 54.1468 34.75 53.2828 33.778C52.4188 32.806 51.1948 32.32 49.6108 32.32C48.0268 32.32 46.8028 32.806 45.9388 33.778C45.0748 34.75 44.6428 36.136 44.6428 37.936V43.714C44.6428 45.514 45.0748 46.9 45.9388 47.872C46.8028 48.844 48.0268 49.33 49.6108 49.33ZM68.5893 55V26.65H76.5813V32.806H76.8513C76.9953 32.014 77.2473 31.258 77.6073 30.538C77.9673 29.782 78.4353 29.116 79.0113 28.54C79.6233 27.964 80.3433 27.514 81.1713 27.19C81.9993 26.83 82.9713 26.65 84.0873 26.65H85.4913V34.102H83.4933C81.1533 34.102 79.4073 34.408 78.2553 35.02C77.1393 35.632 76.5813 36.766 76.5813 38.422V55H68.5893ZM100.568 55C97.7963 55 95.6903 54.298 94.2503 52.894C92.8463 51.49 92.1443 49.438 92.1443 46.738V32.86H88.1483V26.65H90.1463C91.2263 26.65 91.9643 26.398 92.3603 25.894C92.7563 25.354 92.9543 24.598 92.9543 23.626V18.982H100.136V26.65H105.752V32.86H100.136V48.79H105.32V55H100.568ZM112.708 32.86H108.712V26.65H112.708V23.302C112.708 20.566 113.428 18.514 114.868 17.146C116.308 15.742 118.414 15.04 121.186 15.04H126.37V21.25H120.7V26.65H126.37V32.86H120.7V55H112.708V32.86ZM142.107 55.648C140.019 55.648 138.147 55.306 136.491 54.622C134.871 53.938 133.485 52.948 132.333 51.652C131.217 50.356 130.353 48.79 129.741 46.954C129.129 45.118 128.823 43.066 128.823 40.798C128.823 38.53 129.129 36.478 129.741 34.642C130.353 32.806 131.217 31.258 132.333 29.998C133.485 28.702 134.871 27.712 136.491 27.028C138.147 26.344 140.019 26.002 142.107 26.002C144.195 26.002 146.049 26.344 147.669 27.028C149.325 27.712 150.711 28.702 151.827 29.998C152.979 31.258 153.861 32.806 154.473 34.642C155.085 36.478 155.391 38.53 155.391 40.798C155.391 43.066 155.085 45.118 154.473 46.954C153.861 48.79 152.979 50.356 151.827 51.652C150.711 52.948 149.325 53.938 147.669 54.622C146.049 55.306 144.195 55.648 142.107 55.648ZM142.107 49.33C143.691 49.33 144.915 48.844 145.779 47.872C146.643 46.9 147.075 45.514 147.075 43.714V37.936C147.075 36.136 146.643 34.75 145.779 33.778C144.915 32.806 143.691 32.32 142.107 32.32C140.523 32.32 139.299 32.806 138.435 33.778C137.571 34.75 137.139 36.136 137.139 37.936V43.714C137.139 45.514 137.571 46.9 138.435 47.872C139.299 48.844 140.523 49.33 142.107 49.33ZM169.023 55C166.287 55 164.271 54.334 162.975 53.002C161.715 51.67 161.085 49.744 161.085 47.224V15.04H169.077V48.79H172.641V55H169.023ZM181.429 23.626C179.809 23.626 178.621 23.266 177.865 22.546C177.145 21.79 176.785 20.836 176.785 19.684V18.496C176.785 17.344 177.145 16.408 177.865 15.688C178.621 14.932 179.809 14.554 181.429 14.554C183.049 14.554 184.219 14.932 184.939 15.688C185.695 16.408 186.073 17.344 186.073 18.496V19.684C186.073 20.836 185.695 21.79 184.939 22.546C184.219 23.266 183.049 23.626 181.429 23.626ZM177.433 26.65H185.425V55H177.433V26.65ZM204.386 55.648C202.298 55.648 200.426 55.306 198.77 54.622C197.15 53.938 195.764 52.948 194.612 51.652C193.496 50.356 192.632 48.79 192.02 46.954C191.408 45.118 191.102 43.066 191.102 40.798C191.102 38.53 191.408 36.478 192.02 34.642C192.632 32.806 193.496 31.258 194.612 29.998C195.764 28.702 197.15 27.712 198.77 27.028C200.426 26.344 202.298 26.002 204.386 26.002C206.474 26.002 208.328 26.344 209.948 27.028C211.604 27.712 212.99 28.702 214.106 29.998C215.258 31.258 216.14 32.806 216.752 34.642C217.364 36.478 217.67 38.53 217.67 40.798C217.67 43.066 217.364 45.118 216.752 46.954C216.14 48.79 215.258 50.356 214.106 51.652C212.99 52.948 211.604 53.938 209.948 54.622C208.328 55.306 206.474 55.648 204.386 55.648ZM204.386 49.33C205.97 49.33 207.194 48.844 208.058 47.872C208.922 46.9 209.354 45.514 209.354 43.714V37.936C209.354 36.136 208.922 34.75 208.058 33.778C207.194 32.806 205.97 32.32 204.386 32.32C202.802 32.32 201.578 32.806 200.714 33.778C199.85 34.75 199.418 36.136 199.418 37.936V43.714C199.418 45.514 199.85 46.9 200.714 47.872C201.578 48.844 202.802 49.33 204.386 49.33ZM251.786 55.648C249.23 55.648 246.926 55.252 244.874 54.46C242.822 53.632 241.076 52.426 239.636 50.842C238.196 49.222 237.08 47.224 236.288 44.848C235.496 42.436 235.1 39.628 235.1 36.424C235.1 33.256 235.496 30.448 236.288 28C237.08 25.516 238.196 23.446 239.636 21.79C241.076 20.098 242.822 18.82 244.874 17.956C246.926 17.092 249.23 16.66 251.786 16.66C255.278 16.66 258.158 17.38 260.426 18.82C262.694 20.224 264.512 22.456 265.88 25.516L258.806 29.188C258.302 27.604 257.51 26.344 256.43 25.408C255.386 24.436 253.838 23.95 251.786 23.95C249.374 23.95 247.43 24.742 245.954 26.326C244.514 27.874 243.794 30.142 243.794 33.13V39.178C243.794 42.166 244.514 44.452 245.954 46.036C247.43 47.584 249.374 48.358 251.786 48.358C253.802 48.358 255.404 47.818 256.592 46.738C257.816 45.622 258.716 44.29 259.292 42.742L265.988 46.63C264.584 49.51 262.73 51.742 260.426 53.326C258.158 54.874 255.278 55.648 251.786 55.648ZM271.3 55V26.65H279.292V32.806H279.562C279.706 32.014 279.958 31.258 280.318 30.538C280.678 29.782 281.146 29.116 281.722 28.54C282.334 27.964 283.054 27.514 283.882 27.19C284.71 26.83 285.682 26.65 286.798 26.65H288.202V34.102H286.204C283.864 34.102 282.118 34.408 280.966 35.02C279.85 35.632 279.292 36.766 279.292 38.422V55H271.3ZM304.695 55.648C302.535 55.648 300.609 55.306 298.917 54.622C297.225 53.902 295.785 52.912 294.597 51.652C293.445 50.356 292.563 48.79 291.951 46.954C291.375 45.118 291.087 43.066 291.087 40.798C291.087 38.566 291.375 36.55 291.951 34.75C292.527 32.914 293.373 31.348 294.489 30.052C295.641 28.756 297.045 27.766 298.701 27.082C300.357 26.362 302.247 26.002 304.371 26.002C306.711 26.002 308.709 26.398 310.365 27.19C312.057 27.982 313.425 29.044 314.469 30.376C315.549 31.708 316.323 33.256 316.791 35.02C317.295 36.748 317.547 38.566 317.547 40.474V42.85H299.349V43.282C299.349 45.154 299.853 46.648 300.861 47.764C301.869 48.844 303.453 49.384 305.613 49.384C307.269 49.384 308.619 49.06 309.663 48.412C310.707 47.728 311.679 46.918 312.579 45.982L316.575 50.95C315.315 52.426 313.659 53.578 311.607 54.406C309.591 55.234 307.287 55.648 304.695 55.648ZM304.533 31.888C302.913 31.888 301.635 32.428 300.699 33.508C299.799 34.552 299.349 35.956 299.349 37.72V38.152H309.285V37.666C309.285 35.938 308.889 34.552 308.097 33.508C307.341 32.428 306.153 31.888 304.533 31.888ZM344.143 55C342.703 55 341.497 54.55 340.525 53.65C339.589 52.75 338.995 51.544 338.743 50.032H338.419C337.987 51.868 337.033 53.272 335.557 54.244C334.081 55.18 332.263 55.648 330.103 55.648C327.259 55.648 325.081 54.892 323.569 53.38C322.057 51.868 321.301 49.87 321.301 47.386C321.301 44.398 322.381 42.184 324.541 40.744C326.737 39.268 329.707 38.53 333.451 38.53H337.933V36.748C337.933 35.38 337.573 34.3 336.853 33.508C336.133 32.68 334.927 32.266 333.235 32.266C331.651 32.266 330.391 32.608 329.455 33.292C328.519 33.976 327.745 34.75 327.133 35.614L322.381 31.402C323.533 29.71 324.973 28.396 326.701 27.46C328.465 26.488 330.841 26.002 333.829 26.002C337.861 26.002 340.885 26.884 342.901 28.648C344.917 30.412 345.925 32.986 345.925 36.37V48.79H348.571V55H344.143ZM333.073 50.086C334.405 50.086 335.539 49.798 336.475 49.222C337.447 48.646 337.933 47.71 337.933 46.414V43.066H334.045C330.913 43.066 329.347 44.128 329.347 46.252V47.062C329.347 48.106 329.671 48.88 330.319 49.384C330.967 49.852 331.885 50.086 333.073 50.086ZM363.555 55C360.783 55 358.677 54.298 357.237 52.894C355.833 51.49 355.131 49.438 355.131 46.738V32.86H351.135V26.65H353.133C354.213 26.65 354.951 26.398 355.347 25.894C355.743 25.354 355.941 24.598 355.941 23.626V18.982H363.123V26.65H368.739V32.86H363.123V48.79H368.307V55H363.555ZM385.582 55.648C383.494 55.648 381.622 55.306 379.966 54.622C378.346 53.938 376.96 52.948 375.808 51.652C374.692 50.356 373.828 48.79 373.216 46.954C372.604 45.118 372.298 43.066 372.298 40.798C372.298 38.53 372.604 36.478 373.216 34.642C373.828 32.806 374.692 31.258 375.808 29.998C376.96 28.702 378.346 27.712 379.966 27.028C381.622 26.344 383.494 26.002 385.582 26.002C387.67 26.002 389.524 26.344 391.144 27.028C392.8 27.712 394.186 28.702 395.302 29.998C396.454 31.258 397.336 32.806 397.948 34.642C398.56 36.478 398.866 38.53 398.866 40.798C398.866 43.066 398.56 45.118 397.948 46.954C397.336 48.79 396.454 50.356 395.302 51.652C394.186 52.948 392.8 53.938 391.144 54.622C389.524 55.306 387.67 55.648 385.582 55.648ZM385.582 49.33C387.166 49.33 388.39 48.844 389.254 47.872C390.118 46.9 390.55 45.514 390.55 43.714V37.936C390.55 36.136 390.118 34.75 389.254 33.778C388.39 32.806 387.166 32.32 385.582 32.32C383.998 32.32 382.774 32.806 381.91 33.778C381.046 34.75 380.614 36.136 380.614 37.936V43.714C380.614 45.514 381.046 46.9 381.91 47.872C382.774 48.844 383.998 49.33 385.582 49.33ZM404.56 55V26.65H412.552V32.806H412.822C412.966 32.014 413.218 31.258 413.578 30.538C413.938 29.782 414.406 29.116 414.982 28.54C415.594 27.964 416.314 27.514 417.142 27.19C417.97 26.83 418.942 26.65 420.058 26.65H421.462V34.102H419.464C417.124 34.102 415.378 34.408 414.226 35.02C413.11 35.632 412.552 36.766 412.552 38.422V55H404.56Z" fill="white"/>
<defs>
<linearGradient id="paint0_linear_87_4" x1="414" y1="70" x2="431" y2="70" gradientUnits="userSpaceOnUse">
<stop stop-color="#B16CEA"/>
<stop offset="0.394849" stop-color="#FF5E69"/>
<stop offset="0.699303" stop-color="#FF8A56"/>
<stop offset="1" stop-color="#FFA84B"/>
</linearGradient>
</defs>
</svg>
