<svg width="638" height="76" viewBox="0 0 638 76" fill="none" xmlns="http://www.w3.org/2000/svg">
<path d="M13.3118 4.45454V59H0.128196V4.45454H13.3118ZM52.6428 59.5859C49.6244 59.5859 46.8811 58.8047 44.4131 57.2422C41.945 55.6797 39.9742 53.3359 38.5004 50.2109C37.0267 47.0859 36.2899 43.2063 36.2899 38.5721C36.2899 33.7603 37.0534 29.8008 38.5803 26.6935C40.1073 23.5863 42.1048 21.2869 44.5729 19.7955C47.0587 18.304 49.7309 17.5582 52.5896 17.5582C54.738 17.5582 56.5757 17.9311 58.1027 18.6768C59.6297 19.4048 60.8904 20.3459 61.8847 21.5C62.879 22.6541 63.6336 23.8526 64.1485 25.0955H64.4149V4.45454H77.4387V59H64.548V52.3683H64.1485C63.5981 53.6289 62.8169 54.8097 61.8048 55.9105C60.7927 57.0114 59.5232 57.8991 57.9962 58.5739C56.487 59.2486 54.7025 59.5859 52.6428 59.5859ZM57.1705 49.4386C58.7508 49.4386 60.1002 48.9947 61.2188 48.1069C62.3374 47.2013 63.1986 45.9318 63.8023 44.2983C64.406 42.6648 64.7078 40.7472 64.7078 38.5455C64.7078 36.3082 64.406 34.3817 63.8023 32.766C63.2164 31.1502 62.3552 29.9073 61.2188 29.0373C60.1002 28.1673 58.7508 27.7322 57.1705 27.7322C55.5548 27.7322 54.1876 28.1761 53.069 29.0639C51.9504 29.9517 51.0981 31.2035 50.5122 32.8192C49.944 34.435 49.6599 36.3437 49.6599 38.5455C49.6599 40.7472 49.9529 42.6648 50.5388 44.2983C51.1247 45.9318 51.9681 47.2013 53.069 48.1069C54.1876 48.9947 55.5548 49.4386 57.1705 49.4386ZM104.798 59.7724C100.519 59.7724 96.8256 58.929 93.7184 57.2422C90.6289 55.5376 88.2496 53.114 86.5806 49.9712C84.9293 46.8107 84.1037 43.0554 84.1037 38.7053C84.1037 34.4794 84.9382 30.7862 86.6072 27.6257C88.2763 24.4474 90.6289 21.9794 93.6651 20.2216C96.7013 18.446 100.279 17.5582 104.398 17.5582C107.31 17.5582 109.974 18.011 112.388 18.9165C114.803 19.8221 116.89 21.1626 118.647 22.9382C120.405 24.7138 121.772 26.9066 122.749 29.5167C123.725 32.109 124.214 35.0831 124.214 38.4389V41.6882H88.658V34.1243H112.096C112.078 32.7393 111.749 31.5053 111.11 30.4222C110.471 29.3391 109.592 28.4957 108.473 27.892C107.373 27.2706 106.103 26.9599 104.665 26.9599C103.209 26.9599 101.904 27.2884 100.75 27.9453C99.5955 28.5845 98.6811 29.4634 98.0064 30.582C97.3317 31.6829 96.9766 32.9347 96.9411 34.3374V42.0344C96.9411 43.7035 97.2695 45.1683 97.9265 46.429C98.5835 47.6719 99.5156 48.6396 100.723 49.332C101.93 50.0245 103.369 50.3707 105.038 50.3707C106.192 50.3707 107.239 50.2109 108.18 49.8913C109.121 49.5717 109.929 49.1012 110.604 48.4798C111.279 47.8583 111.785 47.0948 112.122 46.1893L124.081 46.5355C123.583 49.2166 122.491 51.5515 120.805 53.5401C119.136 55.511 116.943 57.0469 114.226 58.1477C111.51 59.2308 108.367 59.7724 104.798 59.7724ZM166.581 30.582L154.623 30.9016C154.498 30.0494 154.161 29.2947 153.611 28.6378C153.06 27.9631 152.341 27.4393 151.453 27.0664C150.583 26.6758 149.571 26.4805 148.417 26.4805C146.908 26.4805 145.62 26.7823 144.555 27.386C143.508 27.9897 142.993 28.8065 143.01 29.8363C142.993 30.6353 143.312 31.3278 143.969 31.9137C144.644 32.4996 145.842 32.9702 147.565 33.3253L155.448 34.8168C159.532 35.598 162.568 36.8942 164.557 38.7053C166.563 40.5163 167.575 42.9134 167.593 45.8963C167.575 48.7017 166.741 51.1431 165.09 53.2205C163.456 55.2979 161.219 56.9137 158.378 58.0678C155.537 59.2042 152.288 59.7724 148.63 59.7724C142.788 59.7724 138.181 58.5739 134.807 56.1768C131.451 53.7621 129.534 50.5305 129.054 46.4822L141.918 46.1626C142.203 47.6541 142.939 48.7905 144.129 49.5717C145.319 50.353 146.837 50.7436 148.683 50.7436C150.352 50.7436 151.711 50.4329 152.758 49.8114C153.806 49.19 154.339 48.3643 154.356 47.3345C154.339 46.4112 153.93 45.6744 153.131 45.1239C152.332 44.5558 151.08 44.1119 149.376 43.7923L142.238 42.4339C138.136 41.6882 135.082 40.3121 133.076 38.3058C131.07 36.2816 130.075 33.707 130.093 30.582C130.075 27.8477 130.803 25.5128 132.277 23.5774C133.751 21.6243 135.846 20.1328 138.563 19.103C141.279 18.0732 144.484 17.5582 148.177 17.5582C153.717 17.5582 158.085 18.7212 161.281 21.0472C164.477 23.3555 166.244 26.5337 166.581 30.582ZM174.005 59V18.0909H187.029V59H174.005ZM180.53 13.3235C178.702 13.3235 177.13 12.7198 175.816 11.5124C174.502 10.2873 173.845 8.81356 173.845 7.09126C173.845 5.38672 174.502 3.93075 175.816 2.72337C177.13 1.49822 178.702 0.88565 180.53 0.88565C182.377 0.88565 183.948 1.49822 185.244 2.72337C186.558 3.93075 187.215 5.38672 187.215 7.09126C187.215 8.81356 186.558 10.2873 185.244 11.5124C183.948 12.7198 182.377 13.3235 180.53 13.3235ZM214.388 75.1932C210.5 75.1932 207.171 74.6516 204.401 73.5685C201.631 72.4854 199.456 71.0028 197.875 69.1207C196.295 67.2386 195.345 65.108 195.026 62.7287L207.357 62.0362C207.588 62.8707 208.014 63.5987 208.635 64.2202C209.275 64.8416 210.1 65.321 211.112 65.6584C212.142 65.9957 213.35 66.1644 214.734 66.1644C216.918 66.1644 218.721 65.6317 220.141 64.5664C221.579 63.5188 222.298 61.6811 222.298 59.0533V51.8622H221.846C221.331 53.1229 220.549 54.2504 219.502 55.2447C218.454 56.239 217.149 57.0202 215.587 57.5884C214.042 58.1566 212.266 58.4407 210.26 58.4407C207.277 58.4407 204.543 57.7482 202.057 56.3633C199.589 54.9606 197.609 52.7944 196.118 49.8647C194.644 46.9173 193.907 43.1264 193.907 38.4922C193.907 33.7159 194.671 29.783 196.198 26.6935C197.725 23.5863 199.722 21.2869 202.19 19.7955C204.676 18.304 207.348 17.5582 210.207 17.5582C212.355 17.5582 214.193 17.9311 215.72 18.6768C217.265 19.4048 218.534 20.3459 219.528 21.5C220.523 22.6541 221.277 23.8526 221.792 25.0955H222.165V18.0909H235.136V59.1598C235.136 62.6222 234.266 65.543 232.526 67.9222C230.786 70.3015 228.353 72.1037 225.228 73.3288C222.103 74.5717 218.49 75.1932 214.388 75.1932ZM214.788 48.9592C216.368 48.9592 217.717 48.5419 218.836 47.7074C219.955 46.8729 220.816 45.6744 221.419 44.1119C222.023 42.5494 222.325 40.6761 222.325 38.4922C222.325 36.2727 222.023 34.364 221.419 32.766C220.834 31.1502 219.972 29.9073 218.836 29.0373C217.717 28.1673 216.368 27.7322 214.788 27.7322C213.172 27.7322 211.805 28.1761 210.686 29.0639C209.568 29.9517 208.715 31.2035 208.129 32.8192C207.561 34.4173 207.277 36.3082 207.277 38.4922C207.277 40.6761 207.57 42.5494 208.156 44.1119C208.742 45.6744 209.585 46.8729 210.686 47.7074C211.805 48.5419 213.172 48.9592 214.788 48.9592ZM256.463 35.669V59H243.439V18.0909H255.823V25.6016H256.276C257.182 23.098 258.726 21.136 260.91 19.7156C263.094 18.2773 265.695 17.5582 268.714 17.5582C271.59 17.5582 274.085 18.2063 276.198 19.5025C278.329 20.7809 279.98 22.5742 281.152 24.8825C282.341 27.1729 282.927 29.854 282.91 32.9258V59H269.886V35.4826C269.904 33.2099 269.327 31.4343 268.155 30.1559C267.001 28.8775 265.394 28.2383 263.334 28.2383C261.967 28.2383 260.759 28.5401 259.712 29.1438C258.682 29.7298 257.883 30.5732 257.315 31.674C256.764 32.7749 256.48 34.1065 256.463 35.669ZM307.086 74.3409V18.0909H319.977V25.0955H320.376C320.909 23.8526 321.664 22.6541 322.64 21.5C323.634 20.3459 324.895 19.4048 326.422 18.6768C327.967 17.9311 329.813 17.5582 331.962 17.5582C334.803 17.5582 337.457 18.304 339.925 19.7955C342.411 21.2869 344.418 23.5863 345.945 26.6935C347.472 29.8008 348.235 33.7603 348.235 38.5721C348.235 43.2063 347.498 47.0859 346.024 50.2109C344.568 53.3359 342.598 55.6797 340.112 57.2422C337.644 58.8047 334.9 59.5859 331.882 59.5859C329.822 59.5859 328.038 59.2486 326.529 58.5739C325.019 57.8991 323.75 57.0114 322.72 55.9105C321.708 54.8097 320.927 53.6289 320.376 52.3683H320.11V74.3409H307.086ZM319.844 38.5455C319.844 40.7472 320.137 42.6648 320.723 44.2983C321.326 45.9318 322.187 47.2013 323.306 48.1069C324.442 48.9947 325.801 49.4386 327.381 49.4386C328.979 49.4386 330.337 48.9947 331.456 48.1069C332.574 47.2013 333.418 45.9318 333.986 44.2983C334.572 42.6648 334.865 40.7472 334.865 38.5455C334.865 36.3437 334.572 34.435 333.986 32.8192C333.418 31.2035 332.574 29.9517 331.456 29.0639C330.355 28.1761 328.997 27.7322 327.381 27.7322C325.783 27.7322 324.425 28.1673 323.306 29.0373C322.187 29.9073 321.326 31.1502 320.723 32.766C320.137 34.3817 319.844 36.3082 319.844 38.5455ZM355.06 59V18.0909H367.711V25.5483H368.137C368.883 22.8494 370.099 20.843 371.786 19.5291C373.472 18.1974 375.434 17.5316 377.672 17.5316C378.275 17.5316 378.897 17.576 379.536 17.6648C380.175 17.7358 380.77 17.8512 381.32 18.011V29.3303C380.699 29.1172 379.882 28.9485 378.87 28.8242C377.876 28.6999 376.988 28.6378 376.207 28.6378C374.662 28.6378 373.268 28.984 372.025 29.6765C370.8 30.3512 369.833 31.3011 369.122 32.5263C368.43 33.7337 368.084 35.1541 368.084 36.7876V59H355.06ZM403.599 59.7724C399.303 59.7724 395.609 58.8935 392.52 57.1357C389.448 55.3601 387.078 52.892 385.409 49.7315C383.757 46.5533 382.932 42.869 382.932 38.6786C382.932 34.4705 383.757 30.7862 385.409 27.6257C387.078 24.4474 389.448 21.9794 392.52 20.2216C395.609 18.446 399.303 17.5582 403.599 17.5582C407.896 17.5582 411.581 18.446 414.652 20.2216C417.742 21.9794 420.112 24.4474 421.763 27.6257C423.433 30.7862 424.267 34.4705 424.267 38.6786C424.267 42.869 423.433 46.5533 421.763 49.7315C420.112 52.892 417.742 55.3601 414.652 57.1357C411.581 58.8935 407.896 59.7724 403.599 59.7724ZM403.679 49.9446C405.242 49.9446 406.565 49.4652 407.648 48.5064C408.731 47.5476 409.556 46.2159 410.125 44.5114C410.711 42.8068 411.004 40.8359 411.004 38.5987C411.004 36.326 410.711 34.3374 410.125 32.6328C409.556 30.9283 408.731 29.5966 407.648 28.6378C406.565 27.679 405.242 27.1996 403.679 27.1996C402.064 27.1996 400.696 27.679 399.578 28.6378C398.477 29.5966 397.634 30.9283 397.048 32.6328C396.479 34.3374 396.195 36.326 396.195 38.5987C396.195 40.8359 396.479 42.8068 397.048 44.5114C397.634 46.2159 398.477 47.5476 399.578 48.5064C400.696 49.4652 402.064 49.9446 403.679 49.9446ZM445.88 59.5859C442.862 59.5859 440.118 58.8047 437.65 57.2422C435.182 55.6797 433.211 53.3359 431.738 50.2109C430.264 47.0859 429.527 43.2063 429.527 38.5721C429.527 33.7603 430.291 29.8008 431.818 26.6935C433.345 23.5863 435.342 21.2869 437.81 19.7955C440.296 18.304 442.968 17.5582 445.827 17.5582C447.975 17.5582 449.813 17.9311 451.34 18.6768C452.867 19.4048 454.128 20.3459 455.122 21.5C456.116 22.6541 456.871 23.8526 457.386 25.0955H457.652V4.45454H470.676V59H457.785V52.3683H457.386C456.835 53.6289 456.054 54.8097 455.042 55.9105C454.03 57.0114 452.76 57.8991 451.233 58.5739C449.724 59.2486 447.94 59.5859 445.88 59.5859ZM450.408 49.4386C451.988 49.4386 453.338 48.9947 454.456 48.1069C455.575 47.2013 456.436 45.9318 457.04 44.2983C457.643 42.6648 457.945 40.7472 457.945 38.5455C457.945 36.3082 457.643 34.3817 457.04 32.766C456.454 31.1502 455.593 29.9073 454.456 29.0373C453.338 28.1673 451.988 27.7322 450.408 27.7322C448.792 27.7322 447.425 28.1761 446.306 29.0639C445.188 29.9517 444.335 31.2035 443.749 32.8192C443.181 34.435 442.897 36.3437 442.897 38.5455C442.897 40.7472 443.19 42.6648 443.776 44.2983C444.362 45.9318 445.205 47.2013 446.306 48.1069C447.425 48.9947 448.792 49.4386 450.408 49.4386ZM505.306 41.342V18.0909H518.303V59H505.892V51.3828H505.466C504.56 53.8864 503.016 55.875 500.832 57.3487C498.666 58.8047 496.047 59.5327 492.975 59.5327C490.187 59.5327 487.737 58.8935 485.624 57.6151C483.511 56.3366 481.869 54.5522 480.697 52.2617C479.525 49.9535 478.93 47.2546 478.912 44.1651V18.0909H491.936V41.6083C491.954 43.8278 492.54 45.5767 493.694 46.8551C494.848 48.1335 496.419 48.7727 498.408 48.7727C499.704 48.7727 500.867 48.4886 501.897 47.9205C502.945 47.3345 503.77 46.4911 504.374 45.3903C504.995 44.2717 505.306 42.9222 505.306 41.342ZM545.689 59.7724C541.375 59.7724 537.673 58.8846 534.583 57.109C531.511 55.3335 529.15 52.8654 527.499 49.7049C525.847 46.5266 525.022 42.8512 525.022 38.6786C525.022 34.4883 525.847 30.8129 527.499 27.6523C529.168 24.4741 531.538 21.9972 534.61 20.2216C537.699 18.446 541.384 17.5582 545.663 17.5582C549.445 17.5582 552.738 18.2418 555.544 19.609C558.367 20.9762 560.569 22.9116 562.149 25.4151C563.747 27.9009 564.59 30.8217 564.679 34.1776H552.507C552.259 32.0824 551.549 30.44 550.377 29.2504C549.223 28.0607 547.713 27.4659 545.849 27.4659C544.34 27.4659 543.017 27.892 541.881 28.7443C540.744 29.5788 539.857 30.8217 539.217 32.473C538.596 34.1065 538.285 36.1307 538.285 38.5455C538.285 40.9602 538.596 43.0021 539.217 44.6712C539.857 46.3224 540.744 47.5742 541.881 48.4265C543.017 49.261 544.34 49.6783 545.849 49.6783C547.056 49.6783 548.122 49.4208 549.045 48.9059C549.986 48.391 550.759 47.6364 551.362 46.642C551.966 45.63 552.348 44.4048 552.507 42.9666H564.679C564.555 46.3402 563.711 49.2876 562.149 51.8089C560.604 54.3303 558.429 56.2923 555.624 57.695C552.836 59.0799 549.525 59.7724 545.689 59.7724ZM594.435 18.0909V27.679H568.627V18.0909H594.435ZM574.034 8.28977H587.058V46.136C587.058 46.935 587.182 47.5831 587.431 48.0803C587.697 48.5597 588.079 48.9059 588.576 49.119C589.073 49.3143 589.668 49.4119 590.36 49.4119C590.858 49.4119 591.381 49.3675 591.932 49.2788C592.5 49.1722 592.926 49.0835 593.21 49.0124L595.181 58.4141C594.56 58.5916 593.681 58.8136 592.544 59.0799C591.426 59.3462 590.085 59.5149 588.523 59.5859C585.469 59.728 582.85 59.3729 580.666 58.5206C578.5 57.6506 576.839 56.3011 575.685 54.4723C574.549 52.6435 573.998 50.3441 574.034 47.5742V8.28977ZM636.283 30.582L624.325 30.9016C624.2 30.0494 623.863 29.2947 623.313 28.6378C622.762 27.9631 622.043 27.4393 621.155 27.0664C620.285 26.6758 619.273 26.4805 618.119 26.4805C616.61 26.4805 615.323 26.7823 614.257 27.386C613.21 27.9897 612.695 28.8065 612.713 29.8363C612.695 30.6353 613.014 31.3278 613.671 31.9137C614.346 32.4996 615.545 32.9702 617.267 33.3253L625.15 34.8168C629.234 35.598 632.27 36.8942 634.259 38.7053C636.265 40.5163 637.278 42.9134 637.295 45.8963C637.278 48.7017 636.443 51.1431 634.792 53.2205C633.158 55.2979 630.921 56.9137 628.08 58.0678C625.239 59.2042 621.99 59.7724 618.332 59.7724C612.491 59.7724 607.883 58.5739 604.509 56.1768C601.154 53.7621 599.236 50.5305 598.757 46.4822L611.621 46.1626C611.905 47.6541 612.642 48.7905 613.831 49.5717C615.021 50.353 616.539 50.7436 618.385 50.7436C620.055 50.7436 621.413 50.4329 622.46 49.8114C623.508 49.19 624.041 48.3643 624.058 47.3345C624.041 46.4112 623.632 45.6744 622.833 45.1239C622.034 44.5558 620.782 44.1119 619.078 43.7923L611.94 42.4339C607.839 41.6882 604.785 40.3121 602.778 38.3058C600.772 36.2816 599.778 33.707 599.795 30.582C599.778 27.8477 600.506 25.5128 601.979 23.5774C603.453 21.6243 605.548 20.1328 608.265 19.103C610.981 18.0732 614.186 17.5582 617.879 17.5582C623.419 17.5582 627.787 18.7212 630.983 21.0472C634.179 23.3555 635.946 26.5337 636.283 30.582Z" fill="url(#paint0_linear_10_2)"/>
<defs>
<linearGradient id="paint0_linear_10_2" x1="-4" y1="77" x2="640" y2="77.0001" gradientUnits="userSpaceOnUse">
<stop stop-color="#B16CEA"/>
<stop offset="0.394849" stop-color="#FF5E69"/>
<stop offset="0.699303" stop-color="#FF8A56"/>
<stop offset="1" stop-color="#FFA84B"/>
</linearGradient>
</defs>
</svg>
