<svg width="609" height="73" viewBox="0 0 609 73" fill="none" xmlns="http://www.w3.org/2000/svg">
<path d="M0.75 57V47.925H7.5V13.725H0.75V4.65H25.65V13.725H18.9V47.925H25.65V57H0.75ZM76.4227 50.4H76.0477C75.7477 51.45 75.2727 52.45 74.6227 53.4C73.9727 54.3 73.1727 55.1 72.2227 55.8C71.3227 56.45 70.2727 56.95 69.0727 57.3C67.9227 57.7 66.7227 57.9 65.4727 57.9C60.4727 57.9 56.6977 56.15 54.1477 52.65C51.5977 49.1 50.3227 43.975 50.3227 37.275C50.3227 30.575 51.5977 25.475 54.1477 21.975C56.6977 18.475 60.4727 16.725 65.4727 16.725C68.0227 16.725 70.2727 17.425 72.2227 18.825C74.2227 20.225 75.4977 22.025 76.0477 24.225H76.4227V1.5H87.5227V57H76.4227V50.4ZM69.1477 48.9C71.2477 48.9 72.9727 48.4 74.3227 47.4C75.7227 46.35 76.4227 44.925 76.4227 43.125V31.5C76.4227 29.7 75.7227 28.3 74.3227 27.3C72.9727 26.25 71.2477 25.725 69.1477 25.725C67.0477 25.725 65.2977 26.475 63.8977 27.975C62.5477 29.425 61.8727 31.4 61.8727 33.9V40.725C61.8727 43.225 62.5477 45.225 63.8977 46.725C65.2977 48.175 67.0477 48.9 69.1477 48.9ZM114.328 57.9C111.328 57.9 108.653 57.425 106.303 56.475C103.953 55.475 101.953 54.1 100.303 52.35C98.7025 50.55 97.4775 48.375 96.6275 45.825C95.8275 43.275 95.4275 40.425 95.4275 37.275C95.4275 34.175 95.8275 31.375 96.6275 28.875C97.4275 26.325 98.6025 24.15 100.153 22.35C101.753 20.55 103.703 19.175 106.003 18.225C108.303 17.225 110.928 16.725 113.878 16.725C117.128 16.725 119.903 17.275 122.203 18.375C124.553 19.475 126.453 20.95 127.903 22.8C129.403 24.65 130.478 26.8 131.128 29.25C131.828 31.65 132.178 34.175 132.178 36.825V40.125H106.903V40.725C106.903 43.325 107.603 45.4 109.003 46.95C110.403 48.45 112.603 49.2 115.603 49.2C117.903 49.2 119.778 48.75 121.228 47.85C122.678 46.9 124.028 45.775 125.278 44.475L130.828 51.375C129.078 53.425 126.778 55.025 123.928 56.175C121.128 57.325 117.928 57.9 114.328 57.9ZM114.103 24.9C111.853 24.9 110.078 25.65 108.778 27.15C107.528 28.6 106.903 30.55 106.903 33V33.6H120.703V32.925C120.703 30.525 120.153 28.6 119.053 27.15C118.003 25.65 116.353 24.9 114.103 24.9ZM153.367 57.9C149.567 57.9 146.367 57.3 143.767 56.1C141.167 54.85 138.842 53.1 136.792 50.85L143.317 44.25C144.717 45.8 146.267 47.025 147.967 47.925C149.667 48.825 151.592 49.275 153.742 49.275C155.942 49.275 157.467 48.95 158.317 48.3C159.167 47.6 159.592 46.675 159.592 45.525C159.592 43.675 158.267 42.575 155.617 42.225L151.342 41.7C142.492 40.6 138.067 36.55 138.067 29.55C138.067 27.65 138.417 25.925 139.117 24.375C139.867 22.775 140.892 21.425 142.192 20.325C143.542 19.175 145.142 18.3 146.992 17.7C148.892 17.05 151.017 16.725 153.367 16.725C155.417 16.725 157.217 16.875 158.767 17.175C160.367 17.425 161.767 17.825 162.967 18.375C164.217 18.875 165.342 19.525 166.342 20.325C167.392 21.075 168.417 21.925 169.417 22.875L163.042 29.4C161.792 28.15 160.367 27.175 158.767 26.475C157.217 25.725 155.617 25.35 153.967 25.35C152.067 25.35 150.717 25.65 149.917 26.25C149.117 26.85 148.717 27.65 148.717 28.65C148.717 29.7 148.992 30.525 149.542 31.125C150.142 31.675 151.242 32.075 152.842 32.325L157.267 32.925C165.917 34.075 170.242 38.025 170.242 44.775C170.242 46.675 169.842 48.425 169.042 50.025C168.242 51.625 167.092 53.025 165.592 54.225C164.142 55.375 162.367 56.275 160.267 56.925C158.217 57.575 155.917 57.9 153.367 57.9ZM183.36 13.425C181.11 13.425 179.46 12.925 178.41 11.925C177.41 10.875 176.91 9.55 176.91 7.95V6.3C176.91 4.7 177.41 3.4 178.41 2.4C179.46 1.35 181.11 0.824999 183.36 0.824999C185.61 0.824999 187.235 1.35 188.235 2.4C189.285 3.4 189.81 4.7 189.81 6.3V7.95C189.81 9.55 189.285 10.875 188.235 11.925C187.235 12.925 185.61 13.425 183.36 13.425ZM177.81 17.625H188.91V57H177.81V17.625ZM235.72 59.85C235.72 61.95 235.345 63.8 234.595 65.4C233.895 67 232.72 68.35 231.07 69.45C229.42 70.6 227.22 71.45 224.47 72C221.77 72.6 218.42 72.9 214.42 72.9C211.02 72.9 208.12 72.675 205.72 72.225C203.37 71.825 201.445 71.225 199.945 70.425C198.495 69.675 197.42 68.725 196.72 67.575C196.07 66.475 195.745 65.2 195.745 63.75C195.745 61.55 196.395 59.825 197.695 58.575C198.995 57.325 200.795 56.55 203.095 56.25V55.425C201.195 55.075 199.77 54.275 198.82 53.025C197.87 51.725 197.395 50.225 197.395 48.525C197.395 47.475 197.595 46.575 197.995 45.825C198.445 45.025 198.995 44.35 199.645 43.8C200.345 43.2 201.145 42.725 202.045 42.375C202.945 42.025 203.845 41.75 204.745 41.55V41.25C202.345 40.15 200.57 38.65 199.42 36.75C198.27 34.8 197.695 32.55 197.695 30C197.695 26 199.07 22.8 201.82 20.4C204.62 17.95 208.87 16.725 214.57 16.725C217.17 16.725 219.395 16.975 221.245 17.475V15.975C221.245 13.875 221.745 12.375 222.745 11.475C223.795 10.525 225.27 10.05 227.17 10.05H233.395V18.3H224.695V18.75C226.995 19.85 228.695 21.375 229.795 23.325C230.895 25.225 231.445 27.45 231.445 30C231.445 33.95 230.045 37.125 227.245 39.525C224.495 41.875 220.27 43.05 214.57 43.05C212.02 43.05 209.695 42.775 207.595 42.225C206.445 42.975 205.87 44.025 205.87 45.375C205.87 46.325 206.22 47.075 206.92 47.625C207.67 48.125 208.895 48.375 210.595 48.375H221.995C226.795 48.375 230.27 49.375 232.42 51.375C234.62 53.375 235.72 56.2 235.72 59.85ZM225.295 61.35C225.295 60.2 224.845 59.325 223.945 58.725C223.045 58.125 221.47 57.825 219.22 57.825H205.72C205.22 58.325 204.845 58.875 204.595 59.475C204.395 60.125 204.295 60.75 204.295 61.35C204.295 62.8 204.92 63.85 206.17 64.5C207.42 65.2 209.545 65.55 212.545 65.55H217.045C220.045 65.55 222.17 65.2 223.42 64.5C224.67 63.85 225.295 62.8 225.295 61.35ZM214.57 35.775C216.77 35.775 218.395 35.325 219.445 34.425C220.545 33.475 221.095 32.125 221.095 30.375V29.475C221.095 27.725 220.545 26.4 219.445 25.5C218.395 24.55 216.77 24.075 214.57 24.075C212.37 24.075 210.72 24.55 209.62 25.5C208.57 26.4 208.045 27.725 208.045 29.475V30.375C208.045 32.125 208.57 33.475 209.62 34.425C210.72 35.325 212.37 35.775 214.57 35.775ZM240.652 57V17.625H251.752V24.3H252.202C252.902 22.25 254.127 20.475 255.877 18.975C257.627 17.475 260.052 16.725 263.152 16.725C267.202 16.725 270.252 18.075 272.302 20.775C274.402 23.475 275.452 27.325 275.452 32.325V57H264.352V33.225C264.352 30.675 263.952 28.8 263.152 27.6C262.352 26.35 260.927 25.725 258.877 25.725C257.977 25.725 257.102 25.85 256.252 26.1C255.402 26.3 254.627 26.65 253.927 27.15C253.277 27.65 252.752 28.275 252.352 29.025C251.952 29.725 251.752 30.55 251.752 31.5V57H240.652ZM303.054 17.625H314.154V24.225H314.529C315.079 22.025 316.329 20.225 318.279 18.825C320.279 17.425 322.554 16.725 325.104 16.725C330.104 16.725 333.879 18.475 336.429 21.975C338.979 25.475 340.254 30.575 340.254 37.275C340.254 43.975 338.979 49.1 336.429 52.65C333.879 56.15 330.104 57.9 325.104 57.9C323.804 57.9 322.579 57.7 321.429 57.3C320.279 56.95 319.229 56.45 318.279 55.8C317.379 55.1 316.604 54.3 315.954 53.4C315.304 52.45 314.829 51.45 314.529 50.4H314.154V72H303.054V17.625ZM321.429 48.9C323.529 48.9 325.254 48.175 326.604 46.725C328.004 45.225 328.704 43.225 328.704 40.725V33.9C328.704 31.4 328.004 29.425 326.604 27.975C325.254 26.475 323.529 25.725 321.429 25.725C319.329 25.725 317.579 26.25 316.179 27.3C314.829 28.3 314.154 29.7 314.154 31.5V43.125C314.154 44.925 314.829 46.35 316.179 47.4C317.579 48.4 319.329 48.9 321.429 48.9ZM348.684 57V17.625H359.784V26.175H360.159C360.359 25.075 360.709 24.025 361.209 23.025C361.709 21.975 362.359 21.05 363.159 20.25C364.009 19.45 365.009 18.825 366.159 18.375C367.309 17.875 368.659 17.625 370.209 17.625H372.159V27.975H369.384C366.134 27.975 363.709 28.4 362.109 29.25C360.559 30.1 359.784 31.675 359.784 33.975V57H348.684ZM394.615 57.9C391.715 57.9 389.115 57.425 386.815 56.475C384.565 55.525 382.64 54.15 381.04 52.35C379.49 50.55 378.29 48.375 377.44 45.825C376.59 43.275 376.165 40.425 376.165 37.275C376.165 34.125 376.59 31.275 377.44 28.725C378.29 26.175 379.49 24.025 381.04 22.275C382.64 20.475 384.565 19.1 386.815 18.15C389.115 17.2 391.715 16.725 394.615 16.725C397.515 16.725 400.09 17.2 402.34 18.15C404.64 19.1 406.565 20.475 408.115 22.275C409.715 24.025 410.94 26.175 411.79 28.725C412.64 31.275 413.065 34.125 413.065 37.275C413.065 40.425 412.64 43.275 411.79 45.825C410.94 48.375 409.715 50.55 408.115 52.35C406.565 54.15 404.64 55.525 402.34 56.475C400.09 57.425 397.515 57.9 394.615 57.9ZM394.615 49.125C396.815 49.125 398.515 48.45 399.715 47.1C400.915 45.75 401.515 43.825 401.515 41.325V33.3C401.515 30.8 400.915 28.875 399.715 27.525C398.515 26.175 396.815 25.5 394.615 25.5C392.415 25.5 390.715 26.175 389.515 27.525C388.315 28.875 387.715 30.8 387.715 33.3V41.325C387.715 43.825 388.315 45.75 389.515 47.1C390.715 48.45 392.415 49.125 394.615 49.125ZM445.124 50.4H444.749C444.449 51.45 443.974 52.45 443.324 53.4C442.674 54.3 441.874 55.1 440.924 55.8C440.024 56.45 438.974 56.95 437.774 57.3C436.624 57.7 435.424 57.9 434.174 57.9C429.174 57.9 425.399 56.15 422.849 52.65C420.299 49.1 419.024 43.975 419.024 37.275C419.024 30.575 420.299 25.475 422.849 21.975C425.399 18.475 429.174 16.725 434.174 16.725C436.724 16.725 438.974 17.425 440.924 18.825C442.924 20.225 444.199 22.025 444.749 24.225H445.124V1.5H456.224V57H445.124V50.4ZM437.849 48.9C439.949 48.9 441.674 48.4 443.024 47.4C444.424 46.35 445.124 44.925 445.124 43.125V31.5C445.124 29.7 444.424 28.3 443.024 27.3C441.674 26.25 439.949 25.725 437.849 25.725C435.749 25.725 433.999 26.475 432.599 27.975C431.249 29.425 430.574 31.4 430.574 33.9V40.725C430.574 43.225 431.249 45.225 432.599 46.725C433.999 48.175 435.749 48.9 437.849 48.9ZM489.854 50.4H489.479C489.129 51.4 488.654 52.35 488.054 53.25C487.504 54.15 486.779 54.95 485.879 55.65C484.979 56.35 483.904 56.9 482.654 57.3C481.454 57.7 480.054 57.9 478.454 57.9C474.404 57.9 471.329 56.575 469.229 53.925C467.179 51.225 466.154 47.375 466.154 42.375V17.625H477.254V41.4C477.254 43.8 477.679 45.65 478.529 46.95C479.379 48.25 480.829 48.9 482.879 48.9C483.729 48.9 484.579 48.775 485.429 48.525C486.279 48.275 487.029 47.925 487.679 47.475C488.329 46.975 488.854 46.375 489.254 45.675C489.654 44.975 489.854 44.15 489.854 43.2V17.625H500.954V57H489.854V50.4ZM527.181 57.9C524.231 57.9 521.606 57.425 519.306 56.475C517.006 55.475 515.081 54.1 513.531 52.35C511.981 50.55 510.806 48.375 510.006 45.825C509.206 43.275 508.806 40.425 508.806 37.275C508.806 34.125 509.206 31.3 510.006 28.8C510.806 26.25 511.981 24.075 513.531 22.275C515.081 20.475 517.006 19.1 519.306 18.15C521.606 17.2 524.231 16.725 527.181 16.725C531.181 16.725 534.506 17.625 537.156 19.425C539.856 21.225 541.781 23.75 542.931 27L533.931 30.9C533.581 29.4 532.856 28.125 531.756 27.075C530.656 26.025 529.131 25.5 527.181 25.5C524.931 25.5 523.231 26.25 522.081 27.75C520.931 29.2 520.356 31.175 520.356 33.675V41.025C520.356 43.525 520.931 45.5 522.081 46.95C523.231 48.4 524.931 49.125 527.181 49.125C529.181 49.125 530.756 48.6 531.906 47.55C533.106 46.45 533.981 45.025 534.531 43.275L543.156 47.025C541.856 50.775 539.831 53.525 537.081 55.275C534.381 57.025 531.081 57.9 527.181 57.9ZM563.827 57C559.977 57 557.052 56.025 555.052 54.075C553.102 52.125 552.127 49.275 552.127 45.525V26.25H546.577V17.625H549.352C550.852 17.625 551.877 17.275 552.427 16.575C552.977 15.825 553.252 14.775 553.252 13.425V6.975H563.227V17.625H571.027V26.25H563.227V48.375H570.427V57H563.827ZM592.088 57.9C588.288 57.9 585.088 57.3 582.488 56.1C579.888 54.85 577.563 53.1 575.513 50.85L582.038 44.25C583.438 45.8 584.988 47.025 586.688 47.925C588.388 48.825 590.313 49.275 592.463 49.275C594.663 49.275 596.188 48.95 597.038 48.3C597.888 47.6 598.313 46.675 598.313 45.525C598.313 43.675 596.988 42.575 594.338 42.225L590.063 41.7C581.213 40.6 576.788 36.55 576.788 29.55C576.788 27.65 577.138 25.925 577.838 24.375C578.588 22.775 579.613 21.425 580.913 20.325C582.263 19.175 583.863 18.3 585.713 17.7C587.613 17.05 589.738 16.725 592.088 16.725C594.138 16.725 595.938 16.875 597.488 17.175C599.088 17.425 600.488 17.825 601.688 18.375C602.938 18.875 604.063 19.525 605.063 20.325C606.113 21.075 607.138 21.925 608.138 22.875L601.763 29.4C600.513 28.15 599.088 27.175 597.488 26.475C595.938 25.725 594.338 25.35 592.688 25.35C590.788 25.35 589.438 25.65 588.638 26.25C587.838 26.85 587.438 27.65 587.438 28.65C587.438 29.7 587.713 30.525 588.263 31.125C588.863 31.675 589.963 32.075 591.563 32.325L595.988 32.925C604.638 34.075 608.963 38.025 608.963 44.775C608.963 46.675 608.563 48.425 607.763 50.025C606.963 51.625 605.813 53.025 604.313 54.225C602.863 55.375 601.088 56.275 598.988 56.925C596.938 57.575 594.638 57.9 592.088 57.9Z" fill="url(#paint0_linear_3_2)"/>
<defs>
<linearGradient id="paint0_linear_3_2" x1="-3" y1="78" x2="612" y2="78" gradientUnits="userSpaceOnUse">
<stop stop-color="#B16CEA"/>
<stop offset="0.394849" stop-color="#FF5E69"/>
<stop offset="0.699303" stop-color="#FF8A56"/>
<stop offset="1" stop-color="#FFA84B"/>
</linearGradient>
</defs>
</svg>
