<svg width="445" height="53" viewBox="0 0 445 53" fill="none" xmlns="http://www.w3.org/2000/svg">
<path d="M0.158 41V3.308H8.366V33.71H22.73V41H0.158ZM39.6594 41.648C37.4994 41.648 35.5734 41.306 33.8814 40.622C32.1894 39.902 30.7494 38.912 29.5614 37.652C28.4094 36.356 27.5274 34.79 26.9154 32.954C26.3394 31.118 26.0514 29.066 26.0514 26.798C26.0514 24.566 26.3394 22.55 26.9154 20.75C27.4914 18.914 28.3374 17.348 29.4534 16.052C30.6054 14.756 32.0094 13.766 33.6654 13.082C35.3214 12.362 37.2114 12.002 39.3354 12.002C41.6754 12.002 43.6734 12.398 45.3294 13.19C47.0214 13.982 48.3894 15.044 49.4334 16.376C50.5134 17.708 51.2874 19.256 51.7554 21.02C52.2594 22.748 52.5114 24.566 52.5114 26.474V28.85H34.3134V29.282C34.3134 31.154 34.8174 32.648 35.8254 33.764C36.8334 34.844 38.4174 35.384 40.5774 35.384C42.2334 35.384 43.5834 35.06 44.6274 34.412C45.6714 33.728 46.6434 32.918 47.5434 31.982L51.5394 36.95C50.2794 38.426 48.6234 39.578 46.5714 40.406C44.5554 41.234 42.2514 41.648 39.6594 41.648ZM39.4974 17.888C37.8774 17.888 36.5994 18.428 35.6634 19.508C34.7634 20.552 34.3134 21.956 34.3134 23.72V24.152H44.2494V23.666C44.2494 21.938 43.8534 20.552 43.0614 19.508C42.3054 18.428 41.1174 17.888 39.4974 17.888ZM68.0917 41C65.3197 41 63.2137 40.298 61.7737 38.894C60.3697 37.49 59.6677 35.438 59.6677 32.738V18.86H55.6717V12.65H57.6697C58.7497 12.65 59.4877 12.398 59.8837 11.894C60.2797 11.354 60.4777 10.598 60.4777 9.626V4.982H67.6597V12.65H73.2757V18.86H67.6597V34.79H72.8437V41H68.0917ZM83.5732 0.499997C85.1932 0.499997 86.3632 0.877997 87.0832 1.634C87.8392 2.354 88.2172 3.272 88.2172 4.388V5.522C88.2172 6.566 88.0552 7.628 87.7312 8.708C87.4432 9.752 87.0292 10.76 86.4892 11.732C85.9852 12.704 85.3732 13.622 84.6532 14.486C83.9332 15.314 83.1592 16.052 82.3312 16.7H77.3092C78.4972 15.62 79.5052 14.522 80.3332 13.406C81.1972 12.29 81.8452 11.048 82.2772 9.68C81.1252 9.464 80.2792 8.996 79.7392 8.276C79.1992 7.52 78.9292 6.674 78.9292 5.738V4.388C78.9292 3.272 79.2892 2.354 80.0092 1.634C80.7652 0.877997 81.9532 0.499997 83.5732 0.499997ZM101.096 41.648C98.3598 41.648 96.0558 41.216 94.1838 40.352C92.3118 39.452 90.6378 38.192 89.1618 36.572L93.8598 31.82C94.8678 32.936 95.9838 33.818 97.2078 34.466C98.4318 35.114 99.8178 35.438 101.366 35.438C102.95 35.438 104.048 35.204 104.66 34.736C105.272 34.232 105.578 33.566 105.578 32.738C105.578 31.406 104.624 30.614 102.716 30.362L99.6378 29.984C93.2658 29.192 90.0798 26.276 90.0798 21.236C90.0798 19.868 90.3318 18.626 90.8358 17.51C91.3758 16.358 92.1138 15.386 93.0498 14.594C94.0218 13.766 95.1738 13.136 96.5058 12.704C97.8738 12.236 99.4038 12.002 101.096 12.002C102.572 12.002 103.868 12.11 104.984 12.326C106.136 12.506 107.144 12.794 108.008 13.19C108.908 13.55 109.718 14.018 110.438 14.594C111.194 15.134 111.932 15.746 112.652 16.43L108.062 21.128C107.162 20.228 106.136 19.526 104.984 19.022C103.868 18.482 102.716 18.212 101.528 18.212C100.16 18.212 99.1878 18.428 98.6118 18.86C98.0358 19.292 97.7478 19.868 97.7478 20.588C97.7478 21.344 97.9458 21.938 98.3418 22.37C98.7738 22.766 99.5658 23.054 100.718 23.234L103.904 23.666C110.132 24.494 113.246 27.338 113.246 32.198C113.246 33.566 112.958 34.826 112.382 35.978C111.806 37.13 110.978 38.138 109.898 39.002C108.854 39.83 107.576 40.478 106.064 40.946C104.588 41.414 102.932 41.648 101.096 41.648ZM157.7 43.052C157.7 44.564 157.43 45.896 156.89 47.048C156.386 48.2 155.54 49.172 154.352 49.964C153.164 50.792 151.58 51.404 149.6 51.8C147.656 52.232 145.244 52.448 142.364 52.448C139.916 52.448 137.828 52.286 136.1 51.962C134.408 51.674 133.022 51.242 131.942 50.666C130.898 50.126 130.124 49.442 129.62 48.614C129.152 47.822 128.918 46.904 128.918 45.86C128.918 44.276 129.386 43.034 130.322 42.134C131.258 41.234 132.554 40.676 134.21 40.46V39.866C132.842 39.614 131.816 39.038 131.132 38.138C130.448 37.202 130.106 36.122 130.106 34.898C130.106 34.142 130.25 33.494 130.538 32.954C130.862 32.378 131.258 31.892 131.726 31.496C132.23 31.064 132.806 30.722 133.454 30.47C134.102 30.218 134.75 30.02 135.398 29.876V29.66C133.67 28.868 132.392 27.788 131.564 26.42C130.736 25.016 130.322 23.396 130.322 21.56C130.322 18.68 131.312 16.376 133.292 14.648C135.308 12.884 138.368 12.002 142.472 12.002C144.344 12.002 145.946 12.182 147.278 12.542V11.462C147.278 9.95 147.638 8.87 148.358 8.222C149.114 7.538 150.176 7.196 151.544 7.196H156.026V13.136H149.762V13.46C151.418 14.252 152.642 15.35 153.434 16.754C154.226 18.122 154.622 19.724 154.622 21.56C154.622 24.404 153.614 26.69 151.598 28.418C149.618 30.11 146.576 30.956 142.472 30.956C140.636 30.956 138.962 30.758 137.45 30.362C136.622 30.902 136.208 31.658 136.208 32.63C136.208 33.314 136.46 33.854 136.964 34.25C137.504 34.61 138.386 34.79 139.61 34.79H147.818C151.274 34.79 153.776 35.51 155.324 36.95C156.908 38.39 157.7 40.424 157.7 43.052ZM150.194 44.132C150.194 43.304 149.87 42.674 149.222 42.242C148.574 41.81 147.44 41.594 145.82 41.594H136.1C135.74 41.954 135.47 42.35 135.29 42.782C135.146 43.25 135.074 43.7 135.074 44.132C135.074 45.176 135.524 45.932 136.424 46.4C137.324 46.904 138.854 47.156 141.014 47.156H144.254C146.414 47.156 147.944 46.904 148.844 46.4C149.744 45.932 150.194 45.176 150.194 44.132ZM142.472 25.718C144.056 25.718 145.226 25.394 145.982 24.746C146.774 24.062 147.17 23.09 147.17 21.83V21.182C147.17 19.922 146.774 18.968 145.982 18.32C145.226 17.636 144.056 17.294 142.472 17.294C140.888 17.294 139.7 17.636 138.908 18.32C138.152 18.968 137.774 19.922 137.774 21.182V21.83C137.774 23.09 138.152 24.062 138.908 24.746C139.7 25.394 140.888 25.718 142.472 25.718ZM172.761 41.648C170.601 41.648 168.675 41.306 166.983 40.622C165.291 39.902 163.851 38.912 162.663 37.652C161.511 36.356 160.629 34.79 160.017 32.954C159.441 31.118 159.153 29.066 159.153 26.798C159.153 24.566 159.441 22.55 160.017 20.75C160.593 18.914 161.439 17.348 162.555 16.052C163.707 14.756 165.111 13.766 166.767 13.082C168.423 12.362 170.313 12.002 172.437 12.002C174.777 12.002 176.775 12.398 178.431 13.19C180.123 13.982 181.491 15.044 182.535 16.376C183.615 17.708 184.389 19.256 184.857 21.02C185.361 22.748 185.613 24.566 185.613 26.474V28.85H167.415V29.282C167.415 31.154 167.919 32.648 168.927 33.764C169.935 34.844 171.519 35.384 173.679 35.384C175.335 35.384 176.685 35.06 177.729 34.412C178.773 33.728 179.745 32.918 180.645 31.982L184.641 36.95C183.381 38.426 181.725 39.578 179.673 40.406C177.657 41.234 175.353 41.648 172.761 41.648ZM172.599 17.888C170.979 17.888 169.701 18.428 168.765 19.508C167.865 20.552 167.415 21.956 167.415 23.72V24.152H177.351V23.666C177.351 21.938 176.955 20.552 176.163 19.508C175.407 18.428 174.219 17.888 172.599 17.888ZM201.193 41C198.421 41 196.315 40.298 194.875 38.894C193.471 37.49 192.769 35.438 192.769 32.738V18.86H188.773V12.65H190.771C191.851 12.65 192.589 12.398 192.985 11.894C193.381 11.354 193.579 10.598 193.579 9.626V4.982H200.761V12.65H206.377V18.86H200.761V34.79H205.945V41H201.193ZM236.193 41.648C234.105 41.648 232.233 41.306 230.577 40.622C228.957 39.938 227.571 38.948 226.419 37.652C225.303 36.356 224.439 34.79 223.827 32.954C223.215 31.118 222.909 29.066 222.909 26.798C222.909 24.53 223.215 22.478 223.827 20.642C224.439 18.806 225.303 17.258 226.419 15.998C227.571 14.702 228.957 13.712 230.577 13.028C232.233 12.344 234.105 12.002 236.193 12.002C238.281 12.002 240.135 12.344 241.755 13.028C243.411 13.712 244.797 14.702 245.913 15.998C247.065 17.258 247.947 18.806 248.559 20.642C249.171 22.478 249.477 24.53 249.477 26.798C249.477 29.066 249.171 31.118 248.559 32.954C247.947 34.79 247.065 36.356 245.913 37.652C244.797 38.948 243.411 39.938 241.755 40.622C240.135 41.306 238.281 41.648 236.193 41.648ZM236.193 35.33C237.777 35.33 239.001 34.844 239.865 33.872C240.729 32.9 241.161 31.514 241.161 29.714V23.936C241.161 22.136 240.729 20.75 239.865 19.778C239.001 18.806 237.777 18.32 236.193 18.32C234.609 18.32 233.385 18.806 232.521 19.778C231.657 20.75 231.225 22.136 231.225 23.936V29.714C231.225 31.514 231.657 32.9 232.521 33.872C233.385 34.844 234.609 35.33 236.193 35.33ZM255.171 41V12.65H263.163V17.456H263.487C263.991 15.98 264.873 14.702 266.133 13.622C267.393 12.542 269.139 12.002 271.371 12.002C274.287 12.002 276.483 12.974 277.959 14.918C279.471 16.862 280.227 19.634 280.227 23.234V41H272.235V23.882C272.235 22.046 271.947 20.696 271.371 19.832C270.795 18.932 269.769 18.482 268.293 18.482C267.645 18.482 267.015 18.572 266.403 18.752C265.791 18.896 265.233 19.148 264.729 19.508C264.261 19.868 263.883 20.318 263.595 20.858C263.307 21.362 263.163 21.956 263.163 22.64V41H255.171ZM321.053 41C319.613 41 318.407 40.55 317.435 39.65C316.499 38.75 315.905 37.544 315.653 36.032H315.329C314.897 37.868 313.943 39.272 312.467 40.244C310.991 41.18 309.173 41.648 307.013 41.648C304.169 41.648 301.991 40.892 300.479 39.38C298.967 37.868 298.211 35.87 298.211 33.386C298.211 30.398 299.291 28.184 301.451 26.744C303.647 25.268 306.617 24.53 310.361 24.53H314.843V22.748C314.843 21.38 314.483 20.3 313.763 19.508C313.043 18.68 311.837 18.266 310.145 18.266C308.561 18.266 307.301 18.608 306.365 19.292C305.429 19.976 304.655 20.75 304.043 21.614L299.291 17.402C300.443 15.71 301.883 14.396 303.611 13.46C305.375 12.488 307.751 12.002 310.739 12.002C314.771 12.002 317.795 12.884 319.811 14.648C321.827 16.412 322.835 18.986 322.835 22.37V34.79H325.481V41H321.053ZM309.983 36.086C311.315 36.086 312.449 35.798 313.385 35.222C314.357 34.646 314.843 33.71 314.843 32.414V29.066H310.955C307.823 29.066 306.257 30.128 306.257 32.252V33.062C306.257 34.106 306.581 34.88 307.229 35.384C307.877 35.852 308.795 36.086 309.983 36.086ZM355.055 41.648C352.931 41.648 351.041 41.306 349.385 40.622C347.729 39.902 346.343 38.912 345.227 37.652C344.111 36.356 343.265 34.79 342.689 32.954C342.113 31.118 341.825 29.066 341.825 26.798C341.825 24.53 342.113 22.496 342.689 20.696C343.265 18.86 344.111 17.294 345.227 15.998C346.343 14.702 347.729 13.712 349.385 13.028C351.041 12.344 352.931 12.002 355.055 12.002C357.935 12.002 360.329 12.65 362.237 13.946C364.181 15.242 365.567 17.06 366.395 19.4L359.915 22.208C359.663 21.128 359.141 20.21 358.349 19.454C357.557 18.698 356.459 18.32 355.055 18.32C353.435 18.32 352.211 18.86 351.383 19.94C350.555 20.984 350.141 22.406 350.141 24.206V29.498C350.141 31.298 350.555 32.72 351.383 33.764C352.211 34.808 353.435 35.33 355.055 35.33C356.495 35.33 357.629 34.952 358.457 34.196C359.321 33.404 359.951 32.378 360.347 31.118L366.557 33.818C365.621 36.518 364.163 38.498 362.183 39.758C360.239 41.018 357.863 41.648 355.055 41.648ZM392.455 41C391.015 41 389.809 40.55 388.837 39.65C387.901 38.75 387.307 37.544 387.055 36.032H386.731C386.299 37.868 385.345 39.272 383.869 40.244C382.393 41.18 380.575 41.648 378.415 41.648C375.571 41.648 373.393 40.892 371.881 39.38C370.369 37.868 369.613 35.87 369.613 33.386C369.613 30.398 370.693 28.184 372.853 26.744C375.049 25.268 378.019 24.53 381.763 24.53H386.245V22.748C386.245 21.38 385.885 20.3 385.165 19.508C384.445 18.68 383.239 18.266 381.547 18.266C379.963 18.266 378.703 18.608 377.767 19.292C376.831 19.976 376.057 20.75 375.445 21.614L370.693 17.402C371.845 15.71 373.285 14.396 375.013 13.46C376.777 12.488 379.153 12.002 382.141 12.002C386.173 12.002 389.197 12.884 391.213 14.648C393.229 16.412 394.237 18.986 394.237 22.37V34.79H396.883V41H392.455ZM381.385 36.086C382.717 36.086 383.851 35.798 384.787 35.222C385.759 34.646 386.245 33.71 386.245 32.414V29.066H382.357C379.225 29.066 377.659 30.128 377.659 32.252V33.062C377.659 34.106 377.983 34.88 378.631 35.384C379.279 35.852 380.197 36.086 381.385 36.086ZM410.185 41C407.449 41 405.433 40.334 404.137 39.002C402.877 37.67 402.247 35.744 402.247 33.224V1.04H410.239V34.79H413.803V41H410.185ZM426.111 41C423.375 41 421.359 40.334 420.063 39.002C418.803 37.67 418.173 35.744 418.173 33.224V1.04H426.165V34.79H429.729V41H426.111ZM439.692 41.594C438.072 41.594 436.866 41.198 436.074 40.406C435.318 39.578 434.94 38.534 434.94 37.274V36.194C434.94 34.934 435.318 33.908 436.074 33.116C436.866 32.288 438.072 31.874 439.692 31.874C441.312 31.874 442.5 32.288 443.256 33.116C444.048 33.908 444.444 34.934 444.444 36.194V37.274C444.444 38.534 444.048 39.578 443.256 40.406C442.5 41.198 441.312 41.594 439.692 41.594Z" fill="url(#paint0_linear_44_331)"/>
<defs>
<linearGradient id="paint0_linear_44_331" x1="-4" y1="56" x2="449" y2="56" gradientUnits="userSpaceOnUse">
<stop stop-color="#B16CEA"/>
<stop offset="0.394849" stop-color="#FF5E69"/>
<stop offset="0.699303" stop-color="#FF8A56"/>
<stop offset="1" stop-color="#FFA84B"/>
</linearGradient>
</defs>
</svg>
