<svg width="97" height="10" viewBox="0 0 97 10" fill="none" xmlns="http://www.w3.org/2000/svg">
<path d="M0.924 9V0.624H4.884C5.276 0.624 5.628 0.692 5.94 0.827999C6.252 0.956 6.516 1.136 6.732 1.368C6.956 1.6 7.128 1.884 7.248 2.22C7.368 2.548 7.428 2.908 7.428 3.3C7.428 3.7 7.368 4.064 7.248 4.392C7.128 4.72 6.956 5 6.732 5.232C6.516 5.464 6.252 5.648 5.94 5.784C5.628 5.912 5.276 5.976 4.884 5.976H2.748V9H0.924ZM2.748 4.392H4.668C4.94 4.392 5.152 4.324 5.304 4.188C5.464 4.044 5.544 3.836 5.544 3.564V3.036C5.544 2.764 5.464 2.56 5.304 2.424C5.152 2.28 4.94 2.208 4.668 2.208H2.748V4.392ZM11.0246 9.144C10.5606 9.144 10.1446 9.068 9.77663 8.916C9.41663 8.764 9.10863 8.544 8.85263 8.256C8.60463 7.968 8.41263 7.62 8.27663 7.212C8.14063 6.804 8.07263 6.348 8.07263 5.844C8.07263 5.34 8.14063 4.884 8.27663 4.476C8.41263 4.068 8.60463 3.724 8.85263 3.444C9.10863 3.156 9.41663 2.936 9.77663 2.784C10.1446 2.632 10.5606 2.556 11.0246 2.556C11.4886 2.556 11.9006 2.632 12.2606 2.784C12.6286 2.936 12.9366 3.156 13.1846 3.444C13.4406 3.724 13.6366 4.068 13.7726 4.476C13.9086 4.884 13.9766 5.34 13.9766 5.844C13.9766 6.348 13.9086 6.804 13.7726 7.212C13.6366 7.62 13.4406 7.968 13.1846 8.256C12.9366 8.544 12.6286 8.764 12.2606 8.916C11.9006 9.068 11.4886 9.144 11.0246 9.144ZM11.0246 7.74C11.3766 7.74 11.6486 7.632 11.8406 7.416C12.0326 7.2 12.1286 6.892 12.1286 6.492V5.208C12.1286 4.808 12.0326 4.5 11.8406 4.284C11.6486 4.068 11.3766 3.96 11.0246 3.96C10.6726 3.96 10.4006 4.068 10.2086 4.284C10.0166 4.5 9.92063 4.808 9.92063 5.208V6.492C9.92063 6.892 10.0166 7.2 10.2086 7.416C10.4006 7.632 10.6726 7.74 11.0246 7.74ZM15.2421 9V2.7H17.0181V4.068H17.0781C17.1101 3.892 17.1661 3.724 17.2461 3.564C17.3261 3.396 17.4301 3.248 17.5581 3.12C17.6941 2.992 17.8541 2.892 18.0381 2.82C18.2221 2.74 18.4381 2.7 18.6861 2.7H18.9981V4.356H18.5541C18.0341 4.356 17.6461 4.424 17.3901 4.56C17.1421 4.696 17.0181 4.948 17.0181 5.316V9H15.2421ZM22.3485 9C21.7325 9 21.2645 8.844 20.9445 8.532C20.6325 8.22 20.4765 7.764 20.4765 7.164V4.08H19.5885V2.7H20.0325C20.2725 2.7 20.4365 2.644 20.5245 2.532C20.6125 2.412 20.6565 2.244 20.6565 2.028V0.995999H22.2525V2.7H23.5005V4.08H22.2525V7.62H23.4045V9H22.3485ZM25.0463 4.08H24.1583V2.7H25.0463V1.956C25.0463 1.348 25.2063 0.891999 25.5263 0.588C25.8463 0.276 26.3143 0.12 26.9303 0.12H28.0823V1.5H26.8223V2.7H28.0823V4.08H26.8223V9H25.0463V4.08ZM31.5793 9.144C31.1153 9.144 30.6993 9.068 30.3313 8.916C29.9713 8.764 29.6633 8.544 29.4073 8.256C29.1593 7.968 28.9673 7.62 28.8313 7.212C28.6953 6.804 28.6273 6.348 28.6273 5.844C28.6273 5.34 28.6953 4.884 28.8313 4.476C28.9673 4.068 29.1593 3.724 29.4073 3.444C29.6633 3.156 29.9713 2.936 30.3313 2.784C30.6993 2.632 31.1153 2.556 31.5793 2.556C32.0433 2.556 32.4553 2.632 32.8153 2.784C33.1833 2.936 33.4913 3.156 33.7393 3.444C33.9953 3.724 34.1913 4.068 34.3273 4.476C34.4633 4.884 34.5313 5.34 34.5313 5.844C34.5313 6.348 34.4633 6.804 34.3273 7.212C34.1913 7.62 33.9953 7.968 33.7393 8.256C33.4913 8.544 33.1833 8.764 32.8153 8.916C32.4553 9.068 32.0433 9.144 31.5793 9.144ZM31.5793 7.74C31.9313 7.74 32.2033 7.632 32.3953 7.416C32.5873 7.2 32.6833 6.892 32.6833 6.492V5.208C32.6833 4.808 32.5873 4.5 32.3953 4.284C32.2033 4.068 31.9313 3.96 31.5793 3.96C31.2273 3.96 30.9553 4.068 30.7633 4.284C30.5713 4.5 30.4753 4.808 30.4753 5.208V6.492C30.4753 6.892 30.5713 7.2 30.7633 7.416C30.9553 7.632 31.2273 7.74 31.5793 7.74ZM37.5608 9C36.9528 9 36.5048 8.852 36.2168 8.556C35.9368 8.26 35.7968 7.832 35.7968 7.272V0.12H37.5728V7.62H38.3648V9H37.5608ZM40.3176 2.028C39.9576 2.028 39.6936 1.948 39.5256 1.788C39.3656 1.62 39.2856 1.408 39.2856 1.152V0.887999C39.2856 0.632 39.3656 0.424 39.5256 0.263999C39.6936 0.0959997 39.9576 0.0119998 40.3176 0.0119998C40.6776 0.0119998 40.9376 0.0959997 41.0976 0.263999C41.2656 0.424 41.3496 0.632 41.3496 0.887999V1.152C41.3496 1.408 41.2656 1.62 41.0976 1.788C40.9376 1.948 40.6776 2.028 40.3176 2.028ZM39.4296 2.7H41.2056V9H39.4296V2.7ZM45.4192 9.144C44.9552 9.144 44.5392 9.068 44.1712 8.916C43.8112 8.764 43.5032 8.544 43.2472 8.256C42.9992 7.968 42.8072 7.62 42.6712 7.212C42.5352 6.804 42.4672 6.348 42.4672 5.844C42.4672 5.34 42.5352 4.884 42.6712 4.476C42.8072 4.068 42.9992 3.724 43.2472 3.444C43.5032 3.156 43.8112 2.936 44.1712 2.784C44.5392 2.632 44.9552 2.556 45.4192 2.556C45.8832 2.556 46.2952 2.632 46.6552 2.784C47.0232 2.936 47.3312 3.156 47.5792 3.444C47.8352 3.724 48.0312 4.068 48.1672 4.476C48.3032 4.884 48.3712 5.34 48.3712 5.844C48.3712 6.348 48.3032 6.804 48.1672 7.212C48.0312 7.62 47.8352 7.968 47.5792 8.256C47.3312 8.544 47.0232 8.764 46.6552 8.916C46.2952 9.068 45.8832 9.144 45.4192 9.144ZM45.4192 7.74C45.7712 7.74 46.0432 7.632 46.2352 7.416C46.4272 7.2 46.5232 6.892 46.5232 6.492V5.208C46.5232 4.808 46.4272 4.5 46.2352 4.284C46.0432 4.068 45.7712 3.96 45.4192 3.96C45.0672 3.96 44.7952 4.068 44.6032 4.284C44.4112 4.5 44.3152 4.808 44.3152 5.208V6.492C44.3152 6.892 44.4112 7.2 44.6032 7.416C44.7952 7.632 45.0672 7.74 45.4192 7.74ZM55.9525 9.144C55.3845 9.144 54.8725 9.056 54.4165 8.88C53.9605 8.696 53.5725 8.428 53.2525 8.076C52.9325 7.716 52.6845 7.272 52.5085 6.744C52.3325 6.208 52.2445 5.584 52.2445 4.872C52.2445 4.168 52.3325 3.544 52.5085 3C52.6845 2.448 52.9325 1.988 53.2525 1.62C53.5725 1.244 53.9605 0.959999 54.4165 0.767999C54.8725 0.575999 55.3845 0.48 55.9525 0.48C56.7285 0.48 57.3685 0.64 57.8725 0.96C58.3765 1.272 58.7805 1.768 59.0845 2.448L57.5125 3.264C57.4005 2.912 57.2245 2.632 56.9845 2.424C56.7525 2.208 56.4085 2.1 55.9525 2.1C55.4165 2.1 54.9845 2.276 54.6565 2.628C54.3365 2.972 54.1765 3.476 54.1765 4.14V5.484C54.1765 6.148 54.3365 6.656 54.6565 7.008C54.9845 7.352 55.4165 7.524 55.9525 7.524C56.4005 7.524 56.7565 7.404 57.0205 7.164C57.2925 6.916 57.4925 6.62 57.6205 6.276L59.1085 7.14C58.7965 7.78 58.3845 8.276 57.8725 8.628C57.3685 8.972 56.7285 9.144 55.9525 9.144ZM60.2889 9V2.7H62.0649V4.068H62.1249C62.1569 3.892 62.2129 3.724 62.2929 3.564C62.3729 3.396 62.4769 3.248 62.6049 3.12C62.7409 2.992 62.9009 2.892 63.0849 2.82C63.2689 2.74 63.4849 2.7 63.7329 2.7H64.0449V4.356H63.6009C63.0809 4.356 62.6929 4.424 62.4369 4.56C62.1889 4.696 62.0649 4.948 62.0649 5.316V9H60.2889ZM67.7099 9.144C67.2299 9.144 66.8019 9.068 66.4259 8.916C66.0499 8.756 65.7299 8.536 65.4659 8.256C65.2099 7.968 65.0139 7.62 64.8779 7.212C64.7499 6.804 64.6859 6.348 64.6859 5.844C64.6859 5.348 64.7499 4.9 64.8779 4.5C65.0059 4.092 65.1939 3.744 65.4419 3.456C65.6979 3.168 66.0099 2.948 66.3779 2.796C66.7459 2.636 67.1659 2.556 67.6379 2.556C68.1579 2.556 68.6019 2.644 68.9699 2.82C69.3459 2.996 69.6499 3.232 69.8819 3.528C70.1219 3.824 70.2939 4.168 70.3979 4.56C70.5099 4.944 70.5659 5.348 70.5659 5.772V6.3H66.5219V6.396C66.5219 6.812 66.6339 7.144 66.8579 7.392C67.0819 7.632 67.4339 7.752 67.9139 7.752C68.2819 7.752 68.5819 7.68 68.8139 7.536C69.0459 7.384 69.2619 7.204 69.4619 6.996L70.3499 8.1C70.0699 8.428 69.7019 8.684 69.2459 8.868C68.7979 9.052 68.2859 9.144 67.7099 9.144ZM67.6739 3.864C67.3139 3.864 67.0299 3.984 66.8219 4.224C66.6219 4.456 66.5219 4.768 66.5219 5.16V5.256H68.7299V5.148C68.7299 4.764 68.6419 4.456 68.4659 4.224C68.2979 3.984 68.0339 3.864 67.6739 3.864ZM76.4762 9C76.1562 9 75.8882 8.9 75.6722 8.7C75.4642 8.5 75.3322 8.232 75.2762 7.896H75.2042C75.1082 8.304 74.8962 8.616 74.5682 8.832C74.2402 9.04 73.8362 9.144 73.3562 9.144C72.7242 9.144 72.2402 8.976 71.9042 8.64C71.5682 8.304 71.4002 7.86 71.4002 7.308C71.4002 6.644 71.6402 6.152 72.1202 5.832C72.6082 5.504 73.2682 5.34 74.1002 5.34H75.0962V4.944C75.0962 4.64 75.0162 4.4 74.8562 4.224C74.6962 4.04 74.4282 3.948 74.0522 3.948C73.7002 3.948 73.4202 4.024 73.2122 4.176C73.0042 4.328 72.8322 4.5 72.6962 4.692L71.6402 3.756C71.8962 3.38 72.2162 3.088 72.6002 2.88C72.9922 2.664 73.5202 2.556 74.1842 2.556C75.0802 2.556 75.7522 2.752 76.2002 3.144C76.6482 3.536 76.8722 4.108 76.8722 4.86V7.62H77.4602V9H76.4762ZM74.0162 7.908C74.3122 7.908 74.5642 7.844 74.7722 7.716C74.9882 7.588 75.0962 7.38 75.0962 7.092V6.348H74.2322C73.5362 6.348 73.1882 6.584 73.1882 7.056V7.236C73.1882 7.468 73.2602 7.64 73.4042 7.752C73.5482 7.856 73.7522 7.908 74.0162 7.908ZM80.7899 9C80.1739 9 79.7059 8.844 79.3859 8.532C79.0739 8.22 78.9179 7.764 78.9179 7.164V4.08H78.0299V2.7H78.4739C78.7139 2.7 78.8779 2.644 78.9659 2.532C79.0539 2.412 79.0979 2.244 79.0979 2.028V0.995999H80.6939V2.7H81.9419V4.08H80.6939V7.62H81.8459V9H80.7899ZM85.6848 9.144C85.2208 9.144 84.8048 9.068 84.4368 8.916C84.0768 8.764 83.7688 8.544 83.5128 8.256C83.2648 7.968 83.0728 7.62 82.9368 7.212C82.8008 6.804 82.7328 6.348 82.7328 5.844C82.7328 5.34 82.8008 4.884 82.9368 4.476C83.0728 4.068 83.2648 3.724 83.5128 3.444C83.7688 3.156 84.0768 2.936 84.4368 2.784C84.8048 2.632 85.2208 2.556 85.6848 2.556C86.1488 2.556 86.5608 2.632 86.9208 2.784C87.2888 2.936 87.5968 3.156 87.8448 3.444C88.1008 3.724 88.2968 4.068 88.4328 4.476C88.5688 4.884 88.6368 5.34 88.6368 5.844C88.6368 6.348 88.5688 6.804 88.4328 7.212C88.2968 7.62 88.1008 7.968 87.8448 8.256C87.5968 8.544 87.2888 8.764 86.9208 8.916C86.5608 9.068 86.1488 9.144 85.6848 9.144ZM85.6848 7.74C86.0368 7.74 86.3088 7.632 86.5008 7.416C86.6928 7.2 86.7888 6.892 86.7888 6.492V5.208C86.7888 4.808 86.6928 4.5 86.5008 4.284C86.3088 4.068 86.0368 3.96 85.6848 3.96C85.3328 3.96 85.0608 4.068 84.8688 4.284C84.6768 4.5 84.5808 4.808 84.5808 5.208V6.492C84.5808 6.892 84.6768 7.2 84.8688 7.416C85.0608 7.632 85.3328 7.74 85.6848 7.74ZM89.9022 9V2.7H91.6782V4.068H91.7382C91.7702 3.892 91.8262 3.724 91.9062 3.564C91.9862 3.396 92.0902 3.248 92.2182 3.12C92.3542 2.992 92.5142 2.892 92.6982 2.82C92.8822 2.74 93.0982 2.7 93.3462 2.7H93.6582V4.356H93.2142C92.6942 4.356 92.3062 4.424 92.0502 4.56C91.8022 4.696 91.6782 4.948 91.6782 5.316V9H89.9022Z" fill="black"/>
<path d="M95.7858 9.132C95.4258 9.132 95.1578 9.044 94.9818 8.868C94.8138 8.684 94.7298 8.452 94.7298 8.172V7.932C94.7298 7.652 94.8138 7.424 94.9818 7.248C95.1578 7.064 95.4258 6.972 95.7858 6.972C96.1458 6.972 96.4098 7.064 96.5778 7.248C96.7538 7.424 96.8418 7.652 96.8418 7.932V8.172C96.8418 8.452 96.7538 8.684 96.5778 8.868C96.4098 9.044 96.1458 9.132 95.7858 9.132Z" fill="#ED5E9A"/>
</svg>
