<svg width="246" height="17" viewBox="0 0 246 17" fill="none" xmlns="http://www.w3.org/2000/svg">
<path d="M0.694 16V0.644H7.954C8.67267 0.644 9.318 0.768666 9.89 1.018C10.462 1.25267 10.946 1.58267 11.342 2.008C11.7527 2.43333 12.068 2.954 12.288 3.57C12.508 4.17133 12.618 4.83133 12.618 5.55C12.618 6.28333 12.508 6.95067 12.288 7.552C12.068 8.15333 11.7527 8.66667 11.342 9.092C10.946 9.51733 10.462 9.85467 9.89 10.104C9.318 10.3387 8.67267 10.456 7.954 10.456H4.038V16H0.694ZM4.038 7.552H7.558C8.05667 7.552 8.44533 7.42733 8.724 7.178C9.01733 6.914 9.164 6.53267 9.164 6.034V5.066C9.164 4.56733 9.01733 4.19333 8.724 3.944C8.44533 3.68 8.05667 3.548 7.558 3.548H4.038V7.552ZM22.8755 16H19.5315V0.644H26.8135C27.5175 0.644 28.1555 0.761333 28.7275 0.995999C29.2995 1.23067 29.7835 1.568 30.1795 2.008C30.5902 2.43333 30.9055 2.94667 31.1255 3.548C31.3455 4.14933 31.4555 4.81667 31.4555 5.55C31.4555 6.59133 31.2208 7.50067 30.7515 8.278C30.2968 9.05533 29.6002 9.62 28.6615 9.972L31.6755 16H27.9575L25.2735 10.368H22.8755V16ZM26.3955 7.552C26.8942 7.552 27.2828 7.42733 27.5615 7.178C27.8548 6.914 28.0015 6.53267 28.0015 6.034V5.066C28.0015 4.56733 27.8548 4.19333 27.5615 3.944C27.2828 3.68 26.8942 3.548 26.3955 3.548H22.8755V7.552H26.3955ZM44.7009 16.264C43.6889 16.264 42.7649 16.0953 41.9289 15.758C41.0929 15.4207 40.3815 14.922 39.7949 14.262C39.2082 13.5873 38.7535 12.7587 38.4309 11.776C38.1082 10.7787 37.9469 9.62733 37.9469 8.322C37.9469 7.01667 38.1082 5.87267 38.4309 4.89C38.7535 3.89267 39.2082 3.064 39.7949 2.404C40.3815 1.72933 41.0929 1.22333 41.9289 0.885999C42.7649 0.548666 43.6889 0.379999 44.7009 0.379999C45.7129 0.379999 46.6369 0.548666 47.4729 0.885999C48.3089 1.22333 49.0202 1.72933 49.6069 2.404C50.1935 3.064 50.6482 3.89267 50.9709 4.89C51.2935 5.87267 51.4549 7.01667 51.4549 8.322C51.4549 9.62733 51.2935 10.7787 50.9709 11.776C50.6482 12.7587 50.1935 13.5873 49.6069 14.262C49.0202 14.922 48.3089 15.4207 47.4729 15.758C46.6369 16.0953 45.7129 16.264 44.7009 16.264ZM44.7009 13.294C45.7129 13.294 46.4975 12.964 47.0549 12.304C47.6269 11.644 47.9129 10.698 47.9129 9.466V7.178C47.9129 5.946 47.6269 5 47.0549 4.34C46.4975 3.68 45.7129 3.35 44.7009 3.35C43.6889 3.35 42.8969 3.68 42.3249 4.34C41.7675 5 41.4889 5.946 41.4889 7.178V9.466C41.4889 10.698 41.7675 11.644 42.3249 12.304C42.8969 12.964 43.6889 13.294 44.7009 13.294ZM58.646 0.644H64.432C65.444 0.644 66.368 0.805333 67.204 1.128C68.04 1.45067 68.7513 1.93467 69.338 2.58C69.9246 3.21067 70.3793 4.01 70.702 4.978C71.0246 5.93133 71.186 7.046 71.186 8.322C71.186 9.598 71.0246 10.72 70.702 11.688C70.3793 12.6413 69.9246 13.4407 69.338 14.086C68.7513 14.7167 68.04 15.1933 67.204 15.516C66.368 15.8387 65.444 16 64.432 16H58.646V0.644ZM64.432 13.03C65.4293 13.03 66.214 12.7513 66.786 12.194C67.358 11.6367 67.644 10.742 67.644 9.51V7.134C67.644 5.902 67.358 5.00733 66.786 4.45C66.214 3.89267 65.4293 3.614 64.432 3.614H61.99V13.03H64.432ZM81.5538 0.644V10.06C81.5538 11.1453 81.7665 11.9593 82.1918 12.502C82.6171 13.03 83.3285 13.294 84.3258 13.294C85.3231 13.294 86.0345 13.03 86.4598 12.502C86.8851 11.9593 87.0978 11.1453 87.0978 10.06V0.644H90.3538V9.708C90.3538 10.8373 90.2438 11.82 90.0238 12.656C89.8185 13.4773 89.4738 14.1593 88.9898 14.702C88.5058 15.23 87.8825 15.626 87.1198 15.89C86.3571 16.1393 85.4258 16.264 84.3258 16.264C83.2258 16.264 82.2945 16.1393 81.5318 15.89C80.7691 15.626 80.1458 15.23 79.6618 14.702C79.1778 14.1593 78.8258 13.4773 78.6058 12.656C78.4005 11.82 78.2978 10.8373 78.2978 9.708V0.644H81.5538ZM104.265 16.264C103.224 16.264 102.285 16.1027 101.449 15.78C100.613 15.4427 99.9019 14.9513 99.3152 14.306C98.7285 13.646 98.2739 12.832 97.9512 11.864C97.6285 10.8813 97.4672 9.73733 97.4672 8.432C97.4672 7.14133 97.6285 5.99733 97.9512 5C98.2739 3.988 98.7285 3.14467 99.3152 2.47C99.9019 1.78067 100.613 1.26 101.449 0.907999C102.285 0.555999 103.224 0.379999 104.265 0.379999C105.688 0.379999 106.861 0.673333 107.785 1.26C108.709 1.832 109.45 2.74133 110.007 3.988L107.125 5.484C106.92 4.83867 106.597 4.32533 106.157 3.944C105.732 3.548 105.101 3.35 104.265 3.35C103.283 3.35 102.491 3.67267 101.889 4.318C101.303 4.94867 101.009 5.87267 101.009 7.09V9.554C101.009 10.7713 101.303 11.7027 101.889 12.348C102.491 12.9787 103.283 13.294 104.265 13.294C105.087 13.294 105.739 13.074 106.223 12.634C106.722 12.1793 107.089 11.6367 107.323 11.006L110.051 12.59C109.479 13.7633 108.724 14.6727 107.785 15.318C106.861 15.9487 105.688 16.264 104.265 16.264ZM123.193 3.614V16H119.849V3.614H115.691V0.644H127.351V3.614H123.193ZM143.638 0.644H149.424C150.436 0.644 151.36 0.805333 152.196 1.128C153.032 1.45067 153.743 1.93467 154.33 2.58C154.917 3.21067 155.371 4.01 155.694 4.978C156.017 5.93133 156.178 7.046 156.178 8.322C156.178 9.598 156.017 10.72 155.694 11.688C155.371 12.6413 154.917 13.4407 154.33 14.086C153.743 14.7167 153.032 15.1933 152.196 15.516C151.36 15.8387 150.436 16 149.424 16H143.638V0.644ZM149.424 13.03C150.421 13.03 151.206 12.7513 151.778 12.194C152.35 11.6367 152.636 10.742 152.636 9.51V7.134C152.636 5.902 152.35 5.00733 151.778 4.45C151.206 3.89267 150.421 3.614 149.424 3.614H146.982V13.03H149.424ZM163.378 16V0.644H173.828V3.614H166.722V6.76H172.816V9.708H166.722V13.03H173.828V16H163.378ZM186.113 16.264C184.764 16.264 183.62 16.0367 182.681 15.582C181.743 15.1127 180.943 14.5113 180.283 13.778L182.483 11.556C183.525 12.7293 184.808 13.316 186.333 13.316C187.155 13.316 187.763 13.1473 188.159 12.81C188.555 12.4727 188.753 12.0253 188.753 11.468C188.753 11.0427 188.636 10.6907 188.401 10.412C188.167 10.1187 187.69 9.92067 186.971 9.818L185.453 9.62C183.825 9.41467 182.63 8.92333 181.867 8.146C181.119 7.36867 180.745 6.33467 180.745 5.044C180.745 4.35467 180.877 3.724 181.141 3.152C181.405 2.58 181.779 2.08867 182.263 1.678C182.762 1.26733 183.363 0.952 184.067 0.732C184.786 0.497333 185.6 0.379999 186.509 0.379999C187.668 0.379999 188.687 0.563332 189.567 0.929999C190.447 1.29667 191.203 1.832 191.833 2.536L189.611 4.78C189.245 4.35467 188.797 4.01 188.269 3.746C187.756 3.46733 187.103 3.328 186.311 3.328C185.563 3.328 185.006 3.46 184.639 3.724C184.273 3.988 184.089 4.35467 184.089 4.824C184.089 5.352 184.229 5.73333 184.507 5.968C184.801 6.20267 185.27 6.37133 185.915 6.474L187.433 6.716C189.017 6.96533 190.191 7.45667 190.953 8.19C191.716 8.90867 192.097 9.93533 192.097 11.27C192.097 12.0033 191.965 12.678 191.701 13.294C191.437 13.91 191.049 14.438 190.535 14.878C190.037 15.318 189.413 15.6627 188.665 15.912C187.917 16.1467 187.067 16.264 186.113 16.264ZM198.676 16V13.338H200.656V3.306H198.676V0.644H205.98V3.306H204V13.338H205.98V16H198.676ZM222.912 13.558H222.802C222.685 14.3353 222.289 14.9807 221.614 15.494C220.939 16.0073 220.023 16.264 218.864 16.264C217.984 16.264 217.163 16.0953 216.4 15.758C215.637 15.4207 214.97 14.922 214.398 14.262C213.826 13.602 213.379 12.7807 213.056 11.798C212.733 10.8153 212.572 9.67867 212.572 8.388C212.572 7.09733 212.741 5.95333 213.078 4.956C213.415 3.95867 213.885 3.12267 214.486 2.448C215.102 1.77333 215.835 1.26 216.686 0.907999C217.537 0.555999 218.483 0.379999 219.524 0.379999C220.903 0.379999 222.091 0.680666 223.088 1.282C224.085 1.86867 224.87 2.756 225.442 3.944L222.714 5.506C222.479 4.90467 222.113 4.39867 221.614 3.988C221.115 3.56267 220.419 3.35 219.524 3.35C218.483 3.35 217.654 3.65067 217.038 4.252C216.422 4.85333 216.114 5.79933 216.114 7.09V9.554C216.114 10.83 216.422 11.776 217.038 12.392C217.654 12.9933 218.483 13.294 219.524 13.294C219.935 13.294 220.323 13.25 220.69 13.162C221.057 13.0593 221.379 12.9127 221.658 12.722C221.937 12.5167 222.149 12.2747 222.296 11.996C222.457 11.7173 222.538 11.3873 222.538 11.006V10.236H219.678V7.442H225.728V16H222.912V13.558ZM238.064 8.74L236.59 5.66H236.524V16H233.378V0.644H237.03L241.232 7.904L242.706 10.984H242.772V0.644H245.918V16H242.266L238.064 8.74Z" fill="url(#paint0_linear_17_3)"/>
<defs>
<linearGradient id="paint0_linear_17_3" x1="-1" y1="22" x2="248" y2="22" gradientUnits="userSpaceOnUse">
<stop stop-color="#B16CEA"/>
<stop offset="0.394849" stop-color="#FF5E69"/>
<stop offset="0.699303" stop-color="#FF8A56"/>
<stop offset="1" stop-color="#FFA84B"/>
</linearGradient>
</defs>
</svg>
