<svg width="140" height="17" viewBox="0 0 140 17" fill="none" xmlns="http://www.w3.org/2000/svg">
<path d="M0.694 16V0.644H7.954C8.67267 0.644 9.318 0.768666 9.89 1.018C10.462 1.25267 10.946 1.58267 11.342 2.008C11.7527 2.43333 12.068 2.954 12.288 3.57C12.508 4.17133 12.618 4.83133 12.618 5.55C12.618 6.28333 12.508 6.95067 12.288 7.552C12.068 8.15333 11.7527 8.66667 11.342 9.092C10.946 9.51733 10.462 9.85467 9.89 10.104C9.318 10.3387 8.67267 10.456 7.954 10.456H4.038V16H0.694ZM4.038 7.552H7.558C8.05667 7.552 8.44533 7.42733 8.724 7.178C9.01733 6.914 9.164 6.53267 9.164 6.034V5.066C9.164 4.56733 9.01733 4.19333 8.724 3.944C8.44533 3.68 8.05667 3.548 7.558 3.548H4.038V7.552ZM22.8755 16H19.5315V0.644H26.8135C27.5175 0.644 28.1555 0.761333 28.7275 0.995999C29.2995 1.23067 29.7835 1.568 30.1795 2.008C30.5902 2.43333 30.9055 2.94667 31.1255 3.548C31.3455 4.14933 31.4555 4.81667 31.4555 5.55C31.4555 6.59133 31.2208 7.50067 30.7515 8.278C30.2968 9.05533 29.6002 9.62 28.6615 9.972L31.6755 16H27.9575L25.2735 10.368H22.8755V16ZM26.3955 7.552C26.8942 7.552 27.2828 7.42733 27.5615 7.178C27.8548 6.914 28.0015 6.53267 28.0015 6.034V5.066C28.0015 4.56733 27.8548 4.19333 27.5615 3.944C27.2828 3.68 26.8942 3.548 26.3955 3.548H22.8755V7.552H26.3955ZM44.7009 16.264C43.6889 16.264 42.7649 16.0953 41.9289 15.758C41.0929 15.4207 40.3815 14.922 39.7949 14.262C39.2082 13.5873 38.7535 12.7587 38.4309 11.776C38.1082 10.7787 37.9469 9.62733 37.9469 8.322C37.9469 7.01667 38.1082 5.87267 38.4309 4.89C38.7535 3.89267 39.2082 3.064 39.7949 2.404C40.3815 1.72933 41.0929 1.22333 41.9289 0.885999C42.7649 0.548666 43.6889 0.379999 44.7009 0.379999C45.7129 0.379999 46.6369 0.548666 47.4729 0.885999C48.3089 1.22333 49.0202 1.72933 49.6069 2.404C50.1935 3.064 50.6482 3.89267 50.9709 4.89C51.2935 5.87267 51.4549 7.01667 51.4549 8.322C51.4549 9.62733 51.2935 10.7787 50.9709 11.776C50.6482 12.7587 50.1935 13.5873 49.6069 14.262C49.0202 14.922 48.3089 15.4207 47.4729 15.758C46.6369 16.0953 45.7129 16.264 44.7009 16.264ZM44.7009 13.294C45.7129 13.294 46.4975 12.964 47.0549 12.304C47.6269 11.644 47.9129 10.698 47.9129 9.466V7.178C47.9129 5.946 47.6269 5 47.0549 4.34C46.4975 3.68 45.7129 3.35 44.7009 3.35C43.6889 3.35 42.8969 3.68 42.3249 4.34C41.7675 5 41.4889 5.946 41.4889 7.178V9.466C41.4889 10.698 41.7675 11.644 42.3249 12.304C42.8969 12.964 43.6889 13.294 44.7009 13.294ZM66.9779 0.644V11.556C66.9779 12.26 66.8606 12.9053 66.6259 13.492C66.4059 14.064 66.0759 14.5553 65.6359 14.966C65.1959 15.362 64.6606 15.6773 64.0299 15.912C63.4139 16.132 62.7099 16.242 61.9179 16.242C61.1553 16.242 60.4806 16.1393 59.8939 15.934C59.3219 15.7287 58.8233 15.4353 58.3979 15.054C57.9873 14.6727 57.6499 14.218 57.3859 13.69C57.1219 13.162 56.9386 12.5753 56.8359 11.93L59.9599 11.314C60.2093 12.6487 60.8473 13.316 61.8739 13.316C62.3579 13.316 62.7686 13.162 63.1059 12.854C63.4579 12.546 63.6339 12.062 63.6339 11.402V3.328H58.9699V0.644H66.9779ZM74.669 16V0.644H85.119V3.614H78.013V6.76H84.107V9.708H78.013V13.03H85.119V16H74.669ZM98.6363 16.264C97.5949 16.264 96.6563 16.1027 95.8203 15.78C94.9843 15.4427 94.2729 14.9513 93.6863 14.306C93.0996 13.646 92.6449 12.832 92.3223 11.864C91.9996 10.8813 91.8383 9.73733 91.8383 8.432C91.8383 7.14133 91.9996 5.99733 92.3223 5C92.6449 3.988 93.0996 3.14467 93.6863 2.47C94.2729 1.78067 94.9843 1.26 95.8203 0.907999C96.6563 0.555999 97.5949 0.379999 98.6363 0.379999C100.059 0.379999 101.232 0.673333 102.156 1.26C103.08 1.832 103.821 2.74133 104.378 3.988L101.496 5.484C101.291 4.83867 100.968 4.32533 100.528 3.944C100.103 3.548 99.4723 3.35 98.6363 3.35C97.6536 3.35 96.8616 3.67267 96.2603 4.318C95.6736 4.94867 95.3803 5.87267 95.3803 7.09V9.554C95.3803 10.7713 95.6736 11.7027 96.2603 12.348C96.8616 12.9787 97.6536 13.294 98.6363 13.294C99.4576 13.294 100.11 13.074 100.594 12.634C101.093 12.1793 101.46 11.6367 101.694 11.006L104.422 12.59C103.85 13.7633 103.095 14.6727 102.156 15.318C101.232 15.9487 100.059 16.264 98.6363 16.264ZM117.564 3.614V16H114.22V3.614H110.062V0.644H121.722V3.614H117.564ZM133.124 16.264C131.775 16.264 130.631 16.0367 129.692 15.582C128.754 15.1127 127.954 14.5113 127.294 13.778L129.494 11.556C130.536 12.7293 131.819 13.316 133.344 13.316C134.166 13.316 134.774 13.1473 135.17 12.81C135.566 12.4727 135.764 12.0253 135.764 11.468C135.764 11.0427 135.647 10.6907 135.412 10.412C135.178 10.1187 134.701 9.92067 133.982 9.818L132.464 9.62C130.836 9.41467 129.641 8.92333 128.878 8.146C128.13 7.36867 127.756 6.33467 127.756 5.044C127.756 4.35467 127.888 3.724 128.152 3.152C128.416 2.58 128.79 2.08867 129.274 1.678C129.773 1.26733 130.374 0.952 131.078 0.732C131.797 0.497333 132.611 0.379999 133.52 0.379999C134.679 0.379999 135.698 0.563332 136.578 0.929999C137.458 1.29667 138.214 1.832 138.844 2.536L136.622 4.78C136.256 4.35467 135.808 4.01 135.28 3.746C134.767 3.46733 134.114 3.328 133.322 3.328C132.574 3.328 132.017 3.46 131.65 3.724C131.284 3.988 131.1 4.35467 131.1 4.824C131.1 5.352 131.24 5.73333 131.518 5.968C131.812 6.20267 132.281 6.37133 132.926 6.474L134.444 6.716C136.028 6.96533 137.202 7.45667 137.964 8.19C138.727 8.90867 139.108 9.93533 139.108 11.27C139.108 12.0033 138.976 12.678 138.712 13.294C138.448 13.91 138.06 14.438 137.546 14.878C137.048 15.318 136.424 15.6627 135.676 15.912C134.928 16.1467 134.078 16.264 133.124 16.264Z" fill="url(#paint0_linear_13_3)"/>
<defs>
<linearGradient id="paint0_linear_13_3" x1="-1" y1="22" x2="141" y2="22" gradientUnits="userSpaceOnUse">
<stop stop-color="#B16CEA"/>
<stop offset="0.394849" stop-color="#FF5E69"/>
<stop offset="0.699303" stop-color="#FF8A56"/>
<stop offset="1" stop-color="#FFA84B"/>
</linearGradient>
</defs>
</svg>
