<svg width="134" height="17" viewBox="0 0 134 17" fill="none" xmlns="http://www.w3.org/2000/svg">
<path d="M6.666 16.264C5.31667 16.264 4.17267 16.0367 3.234 15.582C2.29533 15.1127 1.496 14.5113 0.836 13.778L3.036 11.556C4.07733 12.7293 5.36067 13.316 6.886 13.316C7.70733 13.316 8.316 13.1473 8.712 12.81C9.108 12.4727 9.306 12.0253 9.306 11.468C9.306 11.0427 9.18867 10.6907 8.954 10.412C8.71933 10.1187 8.24267 9.92067 7.524 9.818L6.006 9.62C4.378 9.41467 3.18267 8.92333 2.42 8.146C1.672 7.36867 1.298 6.33467 1.298 5.044C1.298 4.35467 1.43 3.724 1.694 3.152C1.958 2.58 2.332 2.08867 2.816 1.678C3.31467 1.26733 3.916 0.952 4.62 0.732C5.33867 0.497333 6.15267 0.379999 7.062 0.379999C8.22067 0.379999 9.24 0.563332 10.12 0.929999C11 1.29667 11.7553 1.832 12.386 2.536L10.164 4.78C9.79733 4.35467 9.35 4.01 8.822 3.746C8.30867 3.46733 7.656 3.328 6.864 3.328C6.116 3.328 5.55867 3.46 5.192 3.724C4.82533 3.988 4.642 4.35467 4.642 4.824C4.642 5.352 4.78133 5.73333 5.06 5.968C5.35333 6.20267 5.82267 6.37133 6.468 6.474L7.986 6.716C9.57 6.96533 10.7433 7.45667 11.506 8.19C12.2687 8.90867 12.65 9.93533 12.65 11.27C12.65 12.0033 12.518 12.678 12.254 13.294C11.99 13.91 11.6013 14.438 11.088 14.878C10.5893 15.318 9.966 15.6627 9.218 15.912C8.47 16.1467 7.61933 16.264 6.666 16.264ZM19.3825 16V0.644H29.8325V3.614H22.7265V6.76H28.8205V9.708H22.7265V13.03H29.8325V16H19.3825ZM40.0498 16H36.7058V0.644H43.9878C44.6918 0.644 45.3298 0.761333 45.9018 0.995999C46.4738 1.23067 46.9578 1.568 47.3538 2.008C47.7645 2.43333 48.0798 2.94667 48.2998 3.548C48.5198 4.14933 48.6298 4.81667 48.6298 5.55C48.6298 6.59133 48.3951 7.50067 47.9258 8.278C47.4711 9.05533 46.7745 9.62 45.8358 9.972L48.8498 16H45.1318L42.4478 10.368H40.0498V16ZM43.5698 7.552C44.0685 7.552 44.4571 7.42733 44.7358 7.178C45.0291 6.914 45.1758 6.53267 45.1758 6.034V5.066C45.1758 4.56733 45.0291 4.19333 44.7358 3.944C44.4571 3.68 44.0685 3.548 43.5698 3.548H40.0498V7.552H43.5698ZM58.388 16L53.438 0.644H56.826L59.114 8.014L60.324 12.832H60.39L61.556 8.014L63.844 0.644H67.122L62.128 16H58.388ZM72.4986 16V13.338H74.4786V3.306H72.4986V0.644H79.8026V3.306H77.8226V13.338H79.8026V16H72.4986ZM92.7527 16.264C91.7114 16.264 90.7727 16.1027 89.9367 15.78C89.1007 15.4427 88.3894 14.9513 87.8027 14.306C87.216 13.646 86.7614 12.832 86.4387 11.864C86.116 10.8813 85.9547 9.73733 85.9547 8.432C85.9547 7.14133 86.116 5.99733 86.4387 5C86.7614 3.988 87.216 3.14467 87.8027 2.47C88.3894 1.78067 89.1007 1.26 89.9367 0.907999C90.7727 0.555999 91.7114 0.379999 92.7527 0.379999C94.1754 0.379999 95.3487 0.673333 96.2727 1.26C97.1967 1.832 97.9374 2.74133 98.4947 3.988L95.6127 5.484C95.4074 4.83867 95.0847 4.32533 94.6447 3.944C94.2194 3.548 93.5887 3.35 92.7527 3.35C91.77 3.35 90.978 3.67267 90.3767 4.318C89.79 4.94867 89.4967 5.87267 89.4967 7.09V9.554C89.4967 10.7713 89.79 11.7027 90.3767 12.348C90.978 12.9787 91.77 13.294 92.7527 13.294C93.574 13.294 94.2267 13.074 94.7107 12.634C95.2094 12.1793 95.576 11.6367 95.8107 11.006L98.5387 12.59C97.9667 13.7633 97.2114 14.6727 96.2727 15.318C95.3487 15.9487 94.1754 16.264 92.7527 16.264ZM104.839 16V0.644H115.289V3.614H108.183V6.76H114.277V9.708H108.183V13.03H115.289V16H104.839ZM127.134 16.264C125.785 16.264 124.641 16.0367 123.702 15.582C122.763 15.1127 121.964 14.5113 121.304 13.778L123.504 11.556C124.545 12.7293 125.829 13.316 127.354 13.316C128.175 13.316 128.784 13.1473 129.18 12.81C129.576 12.4727 129.774 12.0253 129.774 11.468C129.774 11.0427 129.657 10.6907 129.422 10.412C129.187 10.1187 128.711 9.92067 127.992 9.818L126.474 9.62C124.846 9.41467 123.651 8.92333 122.888 8.146C122.14 7.36867 121.766 6.33467 121.766 5.044C121.766 4.35467 121.898 3.724 122.162 3.152C122.426 2.58 122.8 2.08867 123.284 1.678C123.783 1.26733 124.384 0.952 125.088 0.732C125.807 0.497333 126.621 0.379999 127.53 0.379999C128.689 0.379999 129.708 0.563332 130.588 0.929999C131.468 1.29667 132.223 1.832 132.854 2.536L130.632 4.78C130.265 4.35467 129.818 4.01 129.29 3.746C128.777 3.46733 128.124 3.328 127.332 3.328C126.584 3.328 126.027 3.46 125.66 3.724C125.293 3.988 125.11 4.35467 125.11 4.824C125.11 5.352 125.249 5.73333 125.528 5.968C125.821 6.20267 126.291 6.37133 126.936 6.474L128.454 6.716C130.038 6.96533 131.211 7.45667 131.974 8.19C132.737 8.90867 133.118 9.93533 133.118 11.27C133.118 12.0033 132.986 12.678 132.722 13.294C132.458 13.91 132.069 14.438 131.556 14.878C131.057 15.318 130.434 15.6627 129.686 15.912C128.938 16.1467 128.087 16.264 127.134 16.264Z" fill="url(#paint0_linear_3_2)"/>
<defs>
<linearGradient id="paint0_linear_3_2" x1="0" y1="22" x2="135" y2="22" gradientUnits="userSpaceOnUse">
<stop stop-color="#B16CEA"/>
<stop offset="0.394849" stop-color="#FF5E69"/>
<stop offset="0.699303" stop-color="#FF8A56"/>
<stop offset="1" stop-color="#FFA84B"/>
</linearGradient>
</defs>
</svg>
