<svg width="209" height="17" viewBox="0 0 209 17" fill="none" xmlns="http://www.w3.org/2000/svg">
<path d="M8.096 3.614V16H4.752V3.614H0.594V0.644H12.254V3.614H8.096ZM18.9417 16V0.644H29.3917V3.614H22.2857V6.76H28.3797V9.708H22.2857V13.03H29.3917V16H18.9417ZM41.6769 16.264C40.3276 16.264 39.1836 16.0367 38.2449 15.582C37.3063 15.1127 36.5069 14.5113 35.8469 13.778L38.0469 11.556C39.0883 12.7293 40.3716 13.316 41.8969 13.316C42.7183 13.316 43.3269 13.1473 43.7229 12.81C44.1189 12.4727 44.3169 12.0253 44.3169 11.468C44.3169 11.0427 44.1996 10.6907 43.9649 10.412C43.7303 10.1187 43.2536 9.92067 42.5349 9.818L41.0169 9.62C39.3889 9.41467 38.1936 8.92333 37.4309 8.146C36.6829 7.36867 36.3089 6.33467 36.3089 5.044C36.3089 4.35467 36.4409 3.724 36.7049 3.152C36.9689 2.58 37.3429 2.08867 37.8269 1.678C38.3256 1.26733 38.9269 0.952 39.6309 0.732C40.3496 0.497333 41.1636 0.379999 42.0729 0.379999C43.2316 0.379999 44.2509 0.563332 45.1309 0.929999C46.0109 1.29667 46.7663 1.832 47.3969 2.536L45.1749 4.78C44.8083 4.35467 44.3609 4.01 43.8329 3.746C43.3196 3.46733 42.6669 3.328 41.8749 3.328C41.1269 3.328 40.5696 3.46 40.2029 3.724C39.8363 3.988 39.6529 4.35467 39.6529 4.824C39.6529 5.352 39.7923 5.73333 40.0709 5.968C40.3643 6.20267 40.8336 6.37133 41.4789 6.474L42.9969 6.716C44.5809 6.96533 45.7543 7.45667 46.5169 8.19C47.2796 8.90867 47.6609 9.93533 47.6609 11.27C47.6609 12.0033 47.5289 12.678 47.2649 13.294C47.0009 13.91 46.6123 14.438 46.0989 14.878C45.6003 15.318 44.9769 15.6627 44.2289 15.912C43.4809 16.1467 42.6303 16.264 41.6769 16.264ZM60.7198 3.614V16H57.3758V3.614H53.2178V0.644H64.8778V3.614H60.7198ZM70.8855 16V13.338H72.8655V3.306H70.8855V0.644H78.1895V3.306H76.2095V13.338H78.1895V16H70.8855ZM96.8596 5.924H96.7936L95.6716 8.168L92.6796 13.602L89.7536 8.19L88.5876 5.77H88.5216V16H85.3756V0.644H88.9176L92.6796 7.838H92.7236L96.4416 0.644H100.006V16H96.8596V5.924ZM113.961 16.264C112.949 16.264 112.025 16.0953 111.189 15.758C110.353 15.4207 109.642 14.922 109.055 14.262C108.468 13.5873 108.014 12.7587 107.691 11.776C107.368 10.7787 107.207 9.62733 107.207 8.322C107.207 7.01667 107.368 5.87267 107.691 4.89C108.014 3.89267 108.468 3.064 109.055 2.404C109.642 1.72933 110.353 1.22333 111.189 0.885999C112.025 0.548666 112.949 0.379999 113.961 0.379999C114.973 0.379999 115.897 0.548666 116.733 0.885999C117.569 1.22333 118.28 1.72933 118.867 2.404C119.454 3.064 119.908 3.89267 120.231 4.89C120.554 5.87267 120.715 7.01667 120.715 8.322C120.715 9.62733 120.554 10.7787 120.231 11.776C119.908 12.7587 119.454 13.5873 118.867 14.262C118.28 14.922 117.569 15.4207 116.733 15.758C115.897 16.0953 114.973 16.264 113.961 16.264ZM113.961 13.294C114.973 13.294 115.758 12.964 116.315 12.304C116.887 11.644 117.173 10.698 117.173 9.466V7.178C117.173 5.946 116.887 5 116.315 4.34C115.758 3.68 114.973 3.35 113.961 3.35C112.949 3.35 112.157 3.68 111.585 4.34C111.028 5 110.749 5.946 110.749 7.178V9.466C110.749 10.698 111.028 11.644 111.585 12.304C112.157 12.964 112.949 13.294 113.961 13.294ZM132.592 8.74L131.118 5.66H131.052V16H127.906V0.644H131.558L135.76 7.904L137.234 10.984H137.3V0.644H140.446V16H136.794L132.592 8.74ZM147.632 16V13.338H149.612V3.306H147.632V0.644H154.936V3.306H152.956V13.338H154.936V16H147.632ZM171.582 16L170.482 12.348H165.356L164.256 16H160.868L165.928 0.644H170.064L175.058 16H171.582ZM167.952 3.68H167.842L166.148 9.51H169.668L167.952 3.68ZM181.583 16V0.644H184.927V13.03H190.779V16H181.583ZM202.621 16.264C201.271 16.264 200.127 16.0367 199.189 15.582C198.25 15.1127 197.451 14.5113 196.791 13.778L198.991 11.556C200.032 12.7293 201.315 13.316 202.841 13.316C203.662 13.316 204.271 13.1473 204.667 12.81C205.063 12.4727 205.261 12.0253 205.261 11.468C205.261 11.0427 205.143 10.6907 204.909 10.412C204.674 10.1187 204.197 9.92067 203.479 9.818L201.961 9.62C200.333 9.41467 199.137 8.92333 198.375 8.146C197.627 7.36867 197.253 6.33467 197.253 5.044C197.253 4.35467 197.385 3.724 197.649 3.152C197.913 2.58 198.287 2.08867 198.771 1.678C199.269 1.26733 199.871 0.952 200.575 0.732C201.293 0.497333 202.107 0.379999 203.017 0.379999C204.175 0.379999 205.195 0.563332 206.075 0.929999C206.955 1.29667 207.71 1.832 208.341 2.536L206.119 4.78C205.752 4.35467 205.305 4.01 204.777 3.746C204.263 3.46733 203.611 3.328 202.819 3.328C202.071 3.328 201.513 3.46 201.147 3.724C200.78 3.988 200.597 4.35467 200.597 4.824C200.597 5.352 200.736 5.73333 201.015 5.968C201.308 6.20267 201.777 6.37133 202.423 6.474L203.941 6.716C205.525 6.96533 206.698 7.45667 207.461 8.19C208.223 8.90867 208.605 9.93533 208.605 11.27C208.605 12.0033 208.473 12.678 208.209 13.294C207.945 13.91 207.556 14.438 207.043 14.878C206.544 15.318 205.921 15.6627 205.173 15.912C204.425 16.1467 203.574 16.264 202.621 16.264Z" fill="url(#paint0_linear_44_331)"/>
<defs>
<linearGradient id="paint0_linear_44_331" x1="0" y1="22" x2="210" y2="22" gradientUnits="userSpaceOnUse">
<stop stop-color="#B16CEA"/>
<stop offset="0.394849" stop-color="#FF5E69"/>
<stop offset="0.699303" stop-color="#FF8A56"/>
<stop offset="1" stop-color="#FFA84B"/>
</linearGradient>
</defs>
</svg>
