<svg width="177" height="17" viewBox="0 0 177 17" fill="none" xmlns="http://www.w3.org/2000/svg">
<path d="M4.114 16L0.638 0.644H3.938L5.39 8.014L6.204 12.282H6.27L7.238 8.014L8.932 0.644H12.584L14.3 8.014L15.246 12.282H15.312L16.126 8.014L17.6 0.644H20.768L17.204 16H13.398L11.462 7.684L10.714 4.318H10.648L9.878 7.684L7.942 16H4.114ZM27.4924 16V0.644H37.9424V3.614H30.8364V6.76H36.9304V9.708H30.8364V13.03H37.9424V16H27.4924ZM45.2557 0.644H52.7137C53.9897 0.644 54.9797 1.00333 55.6837 1.722C56.4024 2.44067 56.7617 3.394 56.7617 4.582C56.7617 5.16867 56.6811 5.66733 56.5197 6.078C56.3731 6.48867 56.1677 6.826 55.9037 7.09C55.6544 7.354 55.3537 7.552 55.0017 7.684C54.6644 7.80133 54.2977 7.86733 53.9017 7.882V8.014C54.2684 8.014 54.6497 8.08 55.0457 8.212C55.4564 8.344 55.8304 8.55667 56.1677 8.85C56.5051 9.12867 56.7837 9.49533 57.0037 9.95C57.2384 10.4047 57.3557 10.962 57.3557 11.622C57.3557 12.2233 57.2531 12.7953 57.0477 13.338C56.8571 13.866 56.5857 14.328 56.2337 14.724C55.8817 15.12 55.4637 15.4353 54.9797 15.67C54.4957 15.89 53.9677 16 53.3957 16H45.2557V0.644ZM48.5997 13.184H52.4497C52.8897 13.184 53.2344 13.0667 53.4837 12.832C53.7477 12.5827 53.8797 12.238 53.8797 11.798V11.05C53.8797 10.61 53.7477 10.2727 53.4837 10.038C53.2344 9.78867 52.8897 9.664 52.4497 9.664H48.5997V13.184ZM48.5997 6.936H51.9217C52.3617 6.936 52.7064 6.81133 52.9557 6.562C53.2051 6.31267 53.3297 5.968 53.3297 5.528V4.868C53.3297 4.428 53.2051 4.08333 52.9557 3.834C52.7064 3.58467 52.3617 3.46 51.9217 3.46H48.5997V6.936ZM73.9288 0.644H79.7148C80.7268 0.644 81.6508 0.805333 82.4868 1.128C83.3228 1.45067 84.0341 1.93467 84.6208 2.58C85.2074 3.21067 85.6621 4.01 85.9848 4.978C86.3074 5.93133 86.4688 7.046 86.4688 8.322C86.4688 9.598 86.3074 10.72 85.9848 11.688C85.6621 12.6413 85.2074 13.4407 84.6208 14.086C84.0341 14.7167 83.3228 15.1933 82.4868 15.516C81.6508 15.8387 80.7268 16 79.7148 16H73.9288V0.644ZM79.7148 13.03C80.7121 13.03 81.4968 12.7513 82.0688 12.194C82.6408 11.6367 82.9268 10.742 82.9268 9.51V7.134C82.9268 5.902 82.6408 5.00733 82.0688 4.45C81.4968 3.89267 80.7121 3.614 79.7148 3.614H77.2728V13.03H79.7148ZM93.6686 16V0.644H104.119V3.614H97.0126V6.76H103.107V9.708H97.0126V13.03H104.119V16H93.6686ZM116.404 16.264C115.055 16.264 113.911 16.0367 112.972 15.582C112.033 15.1127 111.234 14.5113 110.574 13.778L112.774 11.556C113.815 12.7293 115.099 13.316 116.624 13.316C117.445 13.316 118.054 13.1473 118.45 12.81C118.846 12.4727 119.044 12.0253 119.044 11.468C119.044 11.0427 118.927 10.6907 118.692 10.412C118.457 10.1187 117.981 9.92067 117.262 9.818L115.744 9.62C114.116 9.41467 112.921 8.92333 112.158 8.146C111.41 7.36867 111.036 6.33467 111.036 5.044C111.036 4.35467 111.168 3.724 111.432 3.152C111.696 2.58 112.07 2.08867 112.554 1.678C113.053 1.26733 113.654 0.952 114.358 0.732C115.077 0.497333 115.891 0.379999 116.8 0.379999C117.959 0.379999 118.978 0.563332 119.858 0.929999C120.738 1.29667 121.493 1.832 122.124 2.536L119.902 4.78C119.535 4.35467 119.088 4.01 118.56 3.746C118.047 3.46733 117.394 3.328 116.602 3.328C115.854 3.328 115.297 3.46 114.93 3.724C114.563 3.988 114.38 4.35467 114.38 4.824C114.38 5.352 114.519 5.73333 114.798 5.968C115.091 6.20267 115.561 6.37133 116.206 6.474L117.724 6.716C119.308 6.96533 120.481 7.45667 121.244 8.19C122.007 8.90867 122.388 9.93533 122.388 11.27C122.388 12.0033 122.256 12.678 121.992 13.294C121.728 13.91 121.339 14.438 120.826 14.878C120.327 15.318 119.704 15.6627 118.956 15.912C118.208 16.1467 117.357 16.264 116.404 16.264ZM128.966 16V13.338H130.946V3.306H128.966V0.644H136.27V3.306H134.29V13.338H136.27V16H128.966ZM153.202 13.558H153.092C152.975 14.3353 152.579 14.9807 151.904 15.494C151.23 16.0073 150.313 16.264 149.154 16.264C148.274 16.264 147.453 16.0953 146.69 15.758C145.928 15.4207 145.26 14.922 144.688 14.262C144.116 13.602 143.669 12.7807 143.346 11.798C143.024 10.8153 142.862 9.67867 142.862 8.388C142.862 7.09733 143.031 5.95333 143.368 4.956C143.706 3.95867 144.175 3.12267 144.776 2.448C145.392 1.77333 146.126 1.26 146.976 0.907999C147.827 0.555999 148.773 0.379999 149.814 0.379999C151.193 0.379999 152.381 0.680666 153.378 1.282C154.376 1.86867 155.16 2.756 155.732 3.944L153.004 5.506C152.77 4.90467 152.403 4.39867 151.904 3.988C151.406 3.56267 150.709 3.35 149.814 3.35C148.773 3.35 147.944 3.65067 147.328 4.252C146.712 4.85333 146.404 5.79933 146.404 7.09V9.554C146.404 10.83 146.712 11.776 147.328 12.392C147.944 12.9933 148.773 13.294 149.814 13.294C150.225 13.294 150.614 13.25 150.98 13.162C151.347 13.0593 151.67 12.9127 151.948 12.722C152.227 12.5167 152.44 12.2747 152.586 11.996C152.748 11.7173 152.828 11.3873 152.828 11.006V10.236H149.968V7.442H156.018V16H153.202V13.558ZM168.355 8.74L166.881 5.66H166.815V16H163.669V0.644H167.321L171.523 7.904L172.997 10.984H173.063V0.644H176.209V16H172.557L168.355 8.74Z" fill="url(#paint0_linear_17_4)"/>
<defs>
<linearGradient id="paint0_linear_17_4" x1="0" y1="22" x2="178" y2="22" gradientUnits="userSpaceOnUse">
<stop stop-color="#B16CEA"/>
<stop offset="0.394849" stop-color="#FF5E69"/>
<stop offset="0.699303" stop-color="#FF8A56"/>
<stop offset="1" stop-color="#FFA84B"/>
</linearGradient>
</defs>
</svg>
